<svg width="12" height="12" viewBox="0 0 12 12" fill="none" xmlns="http://www.w3.org/2000/svg">
<path d="M6 1.5C8.4849 1.5 10.5 3.2901 10.5 5.50005C10.4996 6.16299 10.2361 6.79867 9.76729 7.2674C9.29847 7.73613 8.66274 7.99956 7.9998 7.9998H7.1151C6.7002 7.9998 6.36495 8.33505 6.36495 8.74995C6.36495 8.93985 6.4401 9.1149 6.55485 9.24495C6.675 9.37995 6.75015 9.555 6.75015 9.74985C6.75015 10.1652 6.405 10.5 6 10.5C3.5151 10.5 1.5 8.4849 1.5 6C1.5 3.5151 3.5151 1.5 6 1.5ZM5.46495 8.74995C5.46477 8.5332 5.50733 8.31854 5.5902 8.11825C5.67306 7.91797 5.79461 7.73599 5.94787 7.58272C6.10114 7.42946 6.28312 7.30791 6.4834 7.22505C6.68369 7.14218 6.89835 7.09962 7.1151 7.0998H7.9998C8.42397 7.09956 8.83071 6.93102 9.13073 6.63117C9.43075 6.33132 9.59952 5.92467 9.6 5.5005C9.6 3.81255 8.0106 2.4 6 2.4C5.07101 2.39915 4.17765 2.75746 3.50672 3.40001C2.83579 4.04256 2.43922 4.91961 2.39994 5.84777C2.36065 6.77593 2.68169 7.68334 3.29593 8.38029C3.91018 9.07723 4.77006 9.50975 5.6958 9.5874C5.54513 9.33417 5.46539 9.04506 5.46495 8.7504V8.74995ZM3.975 6C3.79598 6 3.62429 5.92888 3.4977 5.8023C3.37112 5.67571 3.3 5.50402 3.3 5.325C3.3 5.14598 3.37112 4.97429 3.4977 4.8477C3.62429 4.72112 3.79598 4.65 3.975 4.65C4.15402 4.65 4.32571 4.72112 4.4523 4.8477C4.57888 4.97429 4.65 5.14598 4.65 5.325C4.65 5.50402 4.57888 5.67571 4.4523 5.8023C4.32571 5.92888 4.15402 6 3.975 6V6ZM8.025 6C7.84598 6 7.67429 5.92888 7.5477 5.8023C7.42112 5.67571 7.35 5.50402 7.35 5.325C7.35 5.14598 7.42112 4.97429 7.5477 4.8477C7.67429 4.72112 7.84598 4.65 8.025 4.65C8.20402 4.65 8.37571 4.72112 8.5023 4.8477C8.62888 4.97429 8.7 5.14598 8.7 5.325C8.7 5.50402 8.62888 5.67571 8.5023 5.8023C8.37571 5.92888 8.20402 6 8.025 6ZM6 4.65C5.82098 4.65 5.64929 4.57888 5.5227 4.4523C5.39612 4.32571 5.325 4.15402 5.325 3.975C5.325 3.79598 5.39612 3.62429 5.5227 3.4977C5.64929 3.37112 5.82098 3.3 6 3.3C6.17902 3.3 6.35071 3.37112 6.4773 3.4977C6.60388 3.62429 6.675 3.79598 6.675 3.975C6.675 4.15402 6.60388 4.32571 6.4773 4.4523C6.35071 4.57888 6.17902 4.65 6 4.65Z" fill="#C9C3FF"/>
</svg>
