<svg width="12" height="12" viewBox="0 0 12 12" fill="none" xmlns="http://www.w3.org/2000/svg">
<path d="M6 10.5C3.51465 10.5 1.5 8.48535 1.5 6C1.5 3.51465 3.51465 1.5 6 1.5C8.48535 1.5 10.5 3.51465 10.5 6C10.5 8.48535 8.48535 10.5 6 10.5ZM6 9.6C6.95478 9.6 7.87045 9.22072 8.54558 8.54558C9.22072 7.87045 9.6 6.95478 9.6 6C9.6 5.04522 9.22072 4.12955 8.54558 3.45442C7.87045 2.77928 6.95478 2.4 6 2.4C5.04522 2.4 4.12955 2.77928 3.45442 3.45442C2.77928 4.12955 2.4 5.04522 2.4 6C2.4 6.95478 2.77928 7.87045 3.45442 8.54558C4.12955 9.22072 5.04522 9.6 6 9.6V9.6ZM5.3799 4.38675L7.57545 5.85015C7.60014 5.86658 7.62039 5.88886 7.63439 5.915C7.6484 5.94114 7.65573 5.97034 7.65573 6C7.65573 6.02966 7.6484 6.05886 7.63439 6.085C7.62039 6.11114 7.60014 6.13342 7.57545 6.14985L5.37945 7.61325C5.35237 7.6312 5.32094 7.64148 5.28849 7.64302C5.25604 7.64455 5.22378 7.63727 5.19513 7.62196C5.16648 7.60664 5.14252 7.58386 5.12577 7.55602C5.10902 7.52819 5.10011 7.49634 5.1 7.46385V4.53615C5.10006 4.50359 5.10895 4.47166 5.12572 4.44376C5.14249 4.41585 5.16652 4.39302 5.19524 4.37769C5.22396 4.36236 5.2563 4.3551 5.28882 4.3567C5.32134 4.3583 5.35282 4.36868 5.3799 4.38675V4.38675Z" fill="#C9C3FF"/>
</svg>
