<svg width="32" height="32" viewBox="0 0 32 32" fill="none" xmlns="http://www.w3.org/2000/svg">
<path d="M16 30C23.732 30 30 23.732 30 16C30 8.26801 23.732 2 16 2C8.26801 2 2 8.26801 2 16C2 23.732 8.26801 30 16 30Z" fill="black"/>
<g clip-path="url(#clip0_171626_95506)">
<path fill-rule="evenodd" clip-rule="evenodd" d="M9 8.98343C9 9.52629 9.44094 9.96657 9.98462 9.96657H18.1443C19.0743 9.96657 19.8402 10.2534 20.4419 10.8271C21.0436 11.4009 21.3444 12.1383 21.3444 13.0397C21.3444 13.8729 21.0436 14.5557 20.4416 15.0883C19.8402 15.6074 19.0743 15.8669 18.1443 15.8669H14.5981C14.0542 15.8669 13.6132 16.3069 13.6132 16.8503C13.6132 17.3931 14.0542 17.8334 14.5981 17.8334H18.514L22.0421 23.4877C22.2608 23.8294 22.5685 24 22.965 24C23.4028 24 23.7105 23.8294 23.8882 23.4877C24.0659 23.1329 24.0317 22.7571 23.7858 22.3611L20.6471 17.3211C21.495 16.9389 22.1652 16.3789 22.6574 15.6414C23.1498 14.8903 23.396 14.0231 23.396 13.0397C23.396 12.0426 23.1702 11.1686 22.7191 10.4174C22.2815 9.666 21.6662 9.07886 20.8729 8.65543C20.0796 8.21829 19.1703 8 18.1443 8H9.98491C9.44094 8 9 8.44 9 8.98343Z" fill="white"/>
</g>
<defs>
<clipPath id="clip0_171626_95506">
<rect width="15" height="16" fill="white" transform="translate(9 8)"/>
</clipPath>
</defs>
</svg>
