<svg width="12" height="12" viewBox="0 0 12 12" fill="none" xmlns="http://www.w3.org/2000/svg">
<path d="M9.14922 4.2H10.0492C10.1686 4.2 10.283 4.24741 10.3674 4.3318C10.4518 4.41619 10.4992 4.53065 10.4992 4.65V10.05C10.4992 10.1693 10.4518 10.2838 10.3674 10.3682C10.283 10.4526 10.1686 10.5 10.0492 10.5H6.44922C6.32987 10.5 6.21541 10.4526 6.13102 10.3682C6.04663 10.2838 5.99922 10.1693 5.99922 10.05V9.6H2.39922C2.27987 9.6 2.16541 9.55259 2.08102 9.4682C1.99663 9.38381 1.94922 9.26935 1.94922 9.15V1.95C1.94922 1.83065 1.99663 1.71619 2.08102 1.6318C2.16541 1.54741 2.27987 1.5 2.39922 1.5H8.69922C8.81857 1.5 8.93303 1.54741 9.01742 1.6318C9.10181 1.71619 9.14922 1.83065 9.14922 1.95V4.2ZM8.24922 4.2V2.4H2.84922V8.7H5.99922V4.65C5.99922 4.53065 6.04663 4.41619 6.13102 4.3318C6.21541 4.24741 6.32987 4.2 6.44922 4.2H8.24922ZM6.89922 5.1V9.6H9.59922V5.1H6.89922Z" fill="#FFDDD3"/>
</svg>
