<svg width="117" height="119" viewBox="0 0 117 119" fill="none" xmlns="http://www.w3.org/2000/svg">
<g clip-path="url(#clip0_171654_229832)">
<path d="M40.8409 11.5627L39.043 9.75653C39.0061 9.71211 38.973 9.664 38.9324 9.61958L30.3627 1.01437C30.2669 0.918135 30.1342 0.862617 29.9979 0.862617L11.4362 0.833008C11.0272 0.833008 10.6293 0.995859 10.3383 1.29195L8.754 2.88346L0.456859 11.2222C0.162111 11.5146 0 11.9143 0 12.3251L0.0294747 30.9716C0.0294747 31.1086 0.0847399 31.2418 0.180533 31.338L1.97849 33.1442C2.01534 33.1886 2.04849 33.2367 2.08902 33.2812L10.6588 41.8901C10.7546 41.9863 10.8872 42.0418 11.0236 42.0418L29.5853 42.0714C29.9942 42.0714 30.3921 41.9086 30.6832 41.6125L38.984 33.2738L40.5683 31.6823C40.8594 31.3899 41.0252 30.9901 41.0252 30.5793L40.9957 11.9328C40.9957 11.7959 40.9404 11.6626 40.8446 11.5664L40.8409 11.5627ZM32.6396 22.5922L39.7356 29.7206C39.9383 29.9242 39.9383 30.2499 39.7356 30.4535C39.5735 30.6163 39.334 30.6422 39.1425 30.5423C39.0909 30.472 39.0393 30.4017 38.9767 30.3387L31.9433 23.2732C31.3353 22.6625 30.3553 22.6625 29.7548 23.2658L29.3421 23.6803L22.7213 30.3313L22.3087 30.7459C21.7081 31.3491 21.7081 32.3374 22.3161 32.9444L29.3495 40.0099C29.4121 40.0728 29.4821 40.1209 29.5521 40.1764C29.6479 40.3726 29.6221 40.6095 29.4637 40.7723C29.2611 40.9759 28.9368 40.9759 28.7342 40.7723L21.6381 33.6439C21.0302 33.0332 20.0502 33.0332 19.4496 33.6365L12.3389 40.7797C12.1362 40.9833 11.812 40.9833 11.6094 40.7797L11.602 40.7723C11.3994 40.5688 11.3994 40.2431 11.602 40.0395L18.348 33.2627C18.3886 33.2219 18.418 33.1775 18.4549 33.1331L18.7165 32.8703C19.317 32.267 19.317 31.2788 18.7091 30.6718L11.6757 23.6063C11.6352 23.5656 11.5873 23.5323 11.5394 23.4953L11.3146 23.2695C10.7067 22.6588 9.72667 22.6588 9.12612 23.2621L8.89032 23.499C8.84611 23.536 8.8019 23.5656 8.76137 23.6063L2.01534 30.3831C1.8127 30.5867 1.48847 30.5867 1.28584 30.3831L1.27847 30.3757C1.07583 30.1722 1.07583 29.8465 1.27847 29.6429L8.38925 22.4997C8.9898 21.8964 8.9898 20.9119 8.38188 20.3012L1.28215 13.1764C1.07951 12.9728 1.07951 12.6471 1.28215 12.4436C1.44426 12.2807 1.68374 12.2548 1.87533 12.3547C1.92691 12.4251 1.97849 12.4954 2.04113 12.5583L9.07454 19.6238C9.68245 20.2345 10.6625 20.2345 11.263 19.6312L11.6757 19.2167L18.2964 12.5657L18.7091 12.1512C19.3096 11.5479 19.3096 10.5597 18.7017 9.95269L11.6683 2.88346C11.6057 2.82054 11.5357 2.77242 11.4657 2.7169C11.3699 2.52074 11.3957 2.28387 11.5541 2.12101C11.7567 1.91745 12.081 1.91745 12.2836 2.12101L19.3796 9.24947C19.9876 9.86016 20.9676 9.86016 21.5681 9.25687L28.6789 2.11361C28.8816 1.91005 29.2058 1.91005 29.4084 2.11361L29.4158 2.12101C29.6184 2.32458 29.6184 2.65028 29.4158 2.85385L22.6698 9.63069C22.6292 9.6714 22.5998 9.71581 22.5629 9.76023L22.3013 10.023C21.7008 10.6263 21.7008 11.6145 22.3087 12.2215L29.3421 19.287C29.3826 19.3278 29.4305 19.3611 29.4784 19.3981L29.7032 19.6238C30.3111 20.2345 31.2911 20.2345 31.8917 19.6312L32.1275 19.3944C32.1717 19.3574 32.2159 19.3278 32.2564 19.287L39.0025 12.5102C39.2051 12.3066 39.5293 12.3066 39.732 12.5102L39.7393 12.5176C39.942 12.7212 39.942 13.0469 39.7393 13.2504L32.6285 20.3937C32.028 20.997 32.028 21.9815 32.6359 22.5922H32.6396Z" fill="white"/>
<path d="M116.547 13.3316L103.402 0.170254C103.306 0.0740234 103.173 0.0185058 103.037 0.0185058H100.579C100.495 0.00740234 100.41 0 100.321 0H88.2C88.0637 0 87.931 0.0555175 87.8352 0.151748L74.6895 13.3168C74.4021 13.6055 74.2363 14.0052 74.2363 14.4198V28.462C74.2363 28.8765 74.4021 29.2762 74.6895 29.5649L87.8352 42.73C87.931 42.8262 88.0637 42.8817 88.2 42.8817H90.6574C90.7422 42.8929 90.8269 42.9003 90.9153 42.9003H103.037C103.173 42.9003 103.306 42.8447 103.402 42.7485L116.547 29.5834C116.835 29.2948 117 28.895 117 28.4805V14.4383C117 14.0237 116.835 13.624 116.547 13.3353V13.3316ZM115.04 29.2763H105.004C104.146 29.2763 103.453 29.9721 103.453 30.827V40.9275C103.453 41.2125 103.221 41.4457 102.937 41.4457H102.93C102.646 41.4457 102.414 41.2125 102.414 40.9275V31.3452C102.414 31.2601 102.407 31.175 102.396 31.0935V30.8085C102.396 29.9536 101.703 29.2577 100.845 29.2577H90.8969C90.8122 29.2577 90.7274 29.2651 90.6427 29.2763H90.4069C89.5485 29.2763 88.8558 29.9721 88.8558 30.827V31.0787C88.8447 31.1601 88.8374 31.2453 88.8374 31.3304V40.9127C88.8374 41.1977 88.6053 41.4309 88.3216 41.4309H88.3142C88.0305 41.4309 87.7984 41.1977 87.7984 40.9127V30.8122C87.7984 29.9573 87.1057 29.2614 86.2473 29.2614H76.2111C75.9274 29.2614 75.6953 29.0283 75.6953 28.7433C75.6953 28.5249 75.8316 28.3362 76.0232 28.2621C76.1153 28.2769 76.2111 28.2843 76.3106 28.2843H86.2583C87.1168 28.2843 87.8094 27.5885 87.8094 26.7335V16.1556C87.8094 15.3006 87.1168 14.6048 86.2583 14.6048H76.3106C76.2148 14.6048 76.119 14.6122 76.0232 14.627C75.8316 14.553 75.6953 14.3642 75.6953 14.1459C75.6953 13.8609 75.9274 13.6277 76.2111 13.6277H86.2473C87.1057 13.6277 87.7984 12.9319 87.7984 12.0769V1.96902C87.7984 1.68403 88.0305 1.45086 88.3142 1.45086H88.3216C88.6053 1.45086 88.8374 1.68403 88.8374 1.96902V11.5513C88.8374 11.6365 88.8447 11.7216 88.8558 11.803V12.088C88.8558 12.943 89.5485 13.6388 90.4069 13.6388H100.355C100.439 13.6388 100.524 13.6314 100.609 13.6203H100.845C101.703 13.6203 102.396 12.9245 102.396 12.0695V11.8178C102.407 11.7364 102.414 11.6513 102.414 11.5662V1.98753C102.414 1.70254 102.646 1.46936 102.93 1.46936H102.937C103.221 1.46936 103.453 1.70254 103.453 1.98753V12.088C103.453 12.943 104.146 13.6388 105.004 13.6388H115.04C115.324 13.6388 115.556 13.872 115.556 14.157C115.556 14.3753 115.42 14.5641 115.228 14.6381C115.136 14.6233 115.04 14.6159 114.941 14.6159H104.993C104.135 14.6159 103.442 15.3117 103.442 16.1667V26.7447C103.442 27.5996 104.135 28.2954 104.993 28.2954H114.941C115.037 28.2954 115.133 28.288 115.228 28.2732C115.42 28.3473 115.556 28.536 115.556 28.7544C115.556 29.0394 115.324 29.2725 115.04 29.2725V29.2763Z" fill="white"/>
<path d="M116.547 89.4349L103.402 76.2699C103.306 76.1736 103.173 76.1181 103.037 76.1181H100.579C100.495 76.107 100.41 76.0996 100.321 76.0996H88.2C88.0637 76.0996 87.931 76.1551 87.8352 76.2514L74.6895 89.4164C74.4021 89.7051 74.2363 90.1048 74.2363 90.5194V104.562C74.2363 104.976 74.4021 105.376 74.6895 105.665L87.8352 118.83C87.931 118.926 88.0637 118.981 88.2 118.981H90.6574C90.7422 118.992 90.8269 119 90.9153 119H103.037C103.173 119 103.306 118.944 103.402 118.848L116.547 105.683C116.835 105.394 117 104.995 117 104.58V90.5379C117 90.1233 116.835 89.7236 116.547 89.4349ZM115.04 105.376H105.004C104.146 105.376 103.453 106.072 103.453 106.927V117.027C103.453 117.312 103.221 117.545 102.937 117.545H102.93C102.646 117.545 102.414 117.312 102.414 117.027V107.445C102.414 107.36 102.407 107.275 102.396 107.193V106.908C102.396 106.053 101.703 105.357 100.845 105.357H90.8969C90.8122 105.357 90.7274 105.365 90.6427 105.376H90.4069C89.5485 105.376 88.8558 106.072 88.8558 106.927V107.178C88.8447 107.26 88.8374 107.345 88.8374 107.43V117.012C88.8374 117.297 88.6053 117.53 88.3216 117.53H88.3142C88.0305 117.53 87.7984 117.297 87.7984 117.012V106.912C87.7984 106.057 87.1057 105.361 86.2473 105.361H76.2111C75.9274 105.361 75.6953 105.128 75.6953 104.843C75.6953 104.625 75.8316 104.436 76.0232 104.362C76.1153 104.377 76.2111 104.384 76.3106 104.384H86.2583C87.1168 104.384 87.8094 103.688 87.8094 102.833V92.2552C87.8094 91.4002 87.1168 90.7044 86.2583 90.7044H76.3106C76.2148 90.7044 76.119 90.7118 76.0232 90.7266C75.8316 90.6526 75.6953 90.4638 75.6953 90.2455C75.6953 89.9605 75.9274 89.7273 76.2111 89.7273H86.2473C87.1057 89.7273 87.7984 89.0315 87.7984 88.1765V78.076C87.7984 77.791 88.0305 77.5579 88.3142 77.5579H88.3216C88.6053 77.5579 88.8374 77.791 88.8374 78.076V87.6584C88.8374 87.7435 88.8447 87.8286 88.8558 87.91V88.195C88.8558 89.05 89.5485 89.7458 90.4069 89.7458H100.355C100.439 89.7458 100.524 89.7384 100.609 89.7273H100.845C101.703 89.7273 102.396 89.0315 102.396 88.1765V87.9248C102.407 87.8434 102.414 87.7583 102.414 87.6732V78.0908C102.414 77.8059 102.646 77.5727 102.93 77.5727H102.937C103.221 77.5727 103.453 77.8059 103.453 78.0908V88.1913C103.453 89.0463 104.146 89.7421 105.004 89.7421H115.04C115.324 89.7421 115.556 89.9753 115.556 90.2603C115.556 90.4787 115.42 90.6674 115.228 90.7414C115.136 90.7266 115.04 90.7192 114.941 90.7192H104.993C104.135 90.7192 103.442 91.415 103.442 92.27V102.848C103.442 103.703 104.135 104.399 104.993 104.399H114.941C115.037 104.399 115.133 104.391 115.228 104.377C115.42 104.451 115.556 104.639 115.556 104.858C115.556 105.143 115.324 105.376 115.04 105.376Z" fill="white"/>
<path d="M41.2285 22.4551H75.1097" stroke="white" stroke-width="2" stroke-miterlimit="10" stroke-dasharray="12 12"/>
<path d="M95.6211 76.9324V42.8965" stroke="white" stroke-width="2" stroke-miterlimit="10" stroke-dasharray="12 12"/>
</g>
<defs>
<clipPath id="clip0_171654_229832">
<rect width="117" height="119" fill="white"/>
</clipPath>
</defs>
</svg>
