<svg width="594" height="573" viewBox="0 0 594 573" fill="none" xmlns="http://www.w3.org/2000/svg">
<path d="M55.425 15.618L52.985 13.178C52.935 13.118 52.89 13.053 52.835 12.993L41.205 1.36805C41.075 1.23805 40.895 1.16305 40.71 1.16305L15.52 1.12305C14.965 1.12305 14.425 1.34305 14.03 1.74305L11.88 3.89305L0.62 15.158C0.22 15.553 0 16.093 0 16.648L0.04 41.838C0.04 42.023 0.115 42.203 0.245 42.333L2.685 44.773C2.735 44.833 2.78 44.898 2.835 44.958L14.465 56.588C14.595 56.718 14.775 56.793 14.96 56.793L40.15 56.833C40.705 56.833 41.245 56.613 41.64 56.213L52.905 44.948L55.055 42.798C55.45 42.403 55.675 41.863 55.675 41.308L55.635 16.118C55.635 15.933 55.56 15.753 55.43 15.623L55.425 15.618ZM44.295 30.518L53.925 40.148C54.2 40.423 54.2 40.863 53.925 41.138C53.705 41.358 53.38 41.393 53.12 41.258C53.05 41.163 52.98 41.068 52.895 40.983L43.35 31.438C42.525 30.613 41.195 30.613 40.38 31.428L39.82 31.988L30.835 40.973L30.275 41.533C29.46 42.348 29.46 43.683 30.285 44.503L39.83 54.048C39.915 54.133 40.01 54.198 40.105 54.273C40.235 54.538 40.2 54.858 39.985 55.078C39.71 55.3531 39.27 55.3531 38.995 55.078L29.365 45.448C28.54 44.623 27.21 44.623 26.395 45.438L16.745 55.088C16.47 55.363 16.03 55.363 15.755 55.088L15.745 55.078C15.47 54.803 15.47 54.363 15.745 54.088L24.9 44.933C24.955 44.878 24.995 44.818 25.045 44.758L25.4 44.403C26.215 43.588 26.215 42.253 25.39 41.433L15.845 31.888C15.79 31.833 15.725 31.788 15.66 31.738L15.355 31.433C14.53 30.608 13.2 30.608 12.385 31.423L12.065 31.743C12.005 31.793 11.945 31.833 11.89 31.888L2.735 41.043C2.46 41.318 2.02 41.318 1.745 41.043L1.735 41.033C1.46 40.758 1.46 40.318 1.735 40.043L11.385 30.393C12.2 29.578 12.2 28.248 11.375 27.423L1.74 17.798C1.465 17.523 1.465 17.083 1.74 16.808C1.96 16.588 2.285 16.553 2.545 16.688C2.615 16.783 2.685 16.878 2.77 16.963L12.315 26.508C13.14 27.333 14.47 27.333 15.285 26.518L15.845 25.958L24.83 16.973L25.39 16.413C26.205 15.598 26.205 14.263 25.38 13.443L15.835 3.89305C15.75 3.80805 15.655 3.74305 15.56 3.66805C15.43 3.40305 15.465 3.08305 15.68 2.86305C15.955 2.58805 16.395 2.58805 16.67 2.86305L26.3 12.493C27.125 13.318 28.455 13.318 29.27 12.503L38.92 2.85305C39.195 2.57805 39.635 2.57805 39.91 2.85305L39.92 2.86305C40.195 3.13805 40.195 3.57805 39.92 3.85305L30.765 13.008C30.71 13.063 30.67 13.123 30.62 13.183L30.265 13.538C29.45 14.353 29.45 15.688 30.275 16.508L39.82 26.053C39.875 26.108 39.94 26.153 40.005 26.203L40.31 26.508C41.135 27.333 42.465 27.333 43.28 26.518L43.6 26.198C43.66 26.148 43.72 26.108 43.775 26.053L52.93 16.898C53.205 16.623 53.645 16.623 53.92 16.898L53.93 16.908C54.205 17.183 54.205 17.623 53.93 17.898L44.28 27.548C43.465 28.363 43.465 29.693 44.29 30.518H44.295Z" fill="#EDF5FD" fill-opacity="0.08"/>
<path d="M158.096 18.01L140.256 0.23C140.126 0.1 139.946 0.025 139.761 0.025H136.426C136.311 0.01 136.196 0 136.076 0H119.626C119.441 0 119.261 0.075 119.131 0.205L101.291 17.99C100.901 18.38 100.676 18.92 100.676 19.48V38.45C100.676 39.01 100.901 39.55 101.291 39.94L119.131 57.725C119.261 57.855 119.441 57.93 119.626 57.93H122.961C123.076 57.945 123.191 57.955 123.311 57.955H139.761C139.946 57.955 140.126 57.88 140.256 57.75L158.096 39.965C158.486 39.575 158.711 39.035 158.711 38.475V19.505C158.711 18.945 158.486 18.405 158.096 18.015V18.01ZM156.051 39.55H142.431C141.266 39.55 140.326 40.49 140.326 41.645V55.29C140.326 55.675 140.011 55.99 139.626 55.99H139.616C139.231 55.99 138.916 55.675 138.916 55.29V42.345C138.916 42.23 138.906 42.115 138.891 42.005V41.62C138.891 40.465 137.951 39.525 136.786 39.525H123.286C123.171 39.525 123.056 39.535 122.941 39.55H122.621C121.456 39.55 120.516 40.49 120.516 41.645V41.985C120.501 42.095 120.491 42.21 120.491 42.325V55.27C120.491 55.655 120.176 55.97 119.791 55.97H119.781C119.396 55.97 119.081 55.655 119.081 55.27V41.625C119.081 40.47 118.141 39.53 116.976 39.53H103.356C102.971 39.53 102.656 39.215 102.656 38.83C102.656 38.535 102.841 38.28 103.101 38.18C103.226 38.2 103.356 38.21 103.491 38.21H116.991C118.156 38.21 119.096 37.27 119.096 36.115V21.825C119.096 20.67 118.156 19.73 116.991 19.73H103.491C103.361 19.73 103.231 19.74 103.101 19.76C102.841 19.66 102.656 19.405 102.656 19.11C102.656 18.725 102.971 18.41 103.356 18.41H116.976C118.141 18.41 119.081 17.47 119.081 16.315V2.66C119.081 2.275 119.396 1.96 119.781 1.96H119.791C120.176 1.96 120.491 2.275 120.491 2.66V15.605C120.491 15.72 120.501 15.835 120.516 15.945V16.33C120.516 17.485 121.456 18.425 122.621 18.425H136.121C136.236 18.425 136.351 18.415 136.466 18.4H136.786C137.951 18.4 138.891 17.46 138.891 16.305V15.965C138.906 15.855 138.916 15.74 138.916 15.625V2.685C138.916 2.3 139.231 1.985 139.616 1.985H139.626C140.011 1.985 140.326 2.3 140.326 2.685V16.33C140.326 17.485 141.266 18.425 142.431 18.425H156.051C156.436 18.425 156.751 18.74 156.751 19.125C156.751 19.42 156.566 19.675 156.306 19.775C156.181 19.755 156.051 19.745 155.916 19.745H142.416C141.251 19.745 140.311 20.685 140.311 21.84V36.13C140.311 37.285 141.251 38.225 142.416 38.225H155.916C156.046 38.225 156.176 38.215 156.306 38.195C156.566 38.295 156.751 38.55 156.751 38.845C156.751 39.23 156.436 39.545 156.051 39.545V39.55Z" fill="#EDF5FD" fill-opacity="0.08"/>
<path d="M259.136 15.618L256.696 13.178C256.646 13.118 256.601 13.053 256.546 12.993L244.916 1.36805C244.786 1.23805 244.606 1.16305 244.421 1.16305L219.231 1.12305C218.676 1.12305 218.136 1.34305 217.741 1.74305L215.591 3.89305L204.331 15.158C203.931 15.553 203.711 16.093 203.711 16.648L203.751 41.838C203.751 42.023 203.826 42.203 203.956 42.333L206.396 44.773C206.446 44.833 206.491 44.898 206.546 44.958L218.176 56.588C218.306 56.718 218.486 56.793 218.671 56.793L243.861 56.833C244.416 56.833 244.956 56.613 245.351 56.213L256.616 44.948L258.766 42.798C259.161 42.403 259.386 41.863 259.386 41.308L259.346 16.118C259.346 15.933 259.271 15.753 259.141 15.623L259.136 15.618ZM248.006 30.518L257.636 40.148C257.911 40.423 257.911 40.863 257.636 41.138C257.416 41.358 257.091 41.393 256.831 41.258C256.761 41.163 256.691 41.068 256.606 40.983L247.061 31.438C246.236 30.613 244.906 30.613 244.091 31.428L243.531 31.988L234.546 40.973L233.986 41.533C233.171 42.348 233.171 43.683 233.996 44.503L243.541 54.048C243.626 54.133 243.721 54.198 243.816 54.273C243.946 54.538 243.911 54.858 243.696 55.078C243.421 55.3531 242.981 55.3531 242.706 55.078L233.076 45.448C232.251 44.623 230.921 44.623 230.106 45.438L220.456 55.088C220.181 55.363 219.741 55.363 219.466 55.088L219.456 55.078C219.181 54.803 219.181 54.363 219.456 54.088L228.611 44.933C228.666 44.878 228.706 44.818 228.756 44.758L229.111 44.403C229.926 43.588 229.926 42.253 229.101 41.433L219.556 31.888C219.501 31.833 219.436 31.788 219.371 31.738L219.066 31.433C218.241 30.608 216.911 30.608 216.096 31.423L215.776 31.743C215.716 31.793 215.656 31.833 215.601 31.888L206.446 41.043C206.171 41.318 205.731 41.318 205.456 41.043L205.446 41.033C205.171 40.758 205.171 40.318 205.446 40.043L215.096 30.393C215.911 29.578 215.911 28.248 215.086 27.423L205.451 17.798C205.176 17.523 205.176 17.083 205.451 16.808C205.671 16.588 205.996 16.553 206.256 16.688C206.326 16.783 206.396 16.878 206.481 16.963L216.026 26.508C216.851 27.333 218.181 27.333 218.996 26.518L219.556 25.958L228.541 16.973L229.101 16.413C229.916 15.598 229.916 14.263 229.091 13.443L219.546 3.89305C219.461 3.80805 219.366 3.74305 219.271 3.66805C219.141 3.40305 219.176 3.08305 219.391 2.86305C219.666 2.58805 220.106 2.58805 220.381 2.86305L230.011 12.493C230.836 13.318 232.166 13.318 232.981 12.503L242.631 2.85305C242.906 2.57805 243.346 2.57805 243.621 2.85305L243.631 2.86305C243.906 3.13805 243.906 3.57805 243.631 3.85305L234.476 13.008C234.421 13.063 234.381 13.123 234.331 13.183L233.976 13.538C233.161 14.353 233.161 15.688 233.986 16.508L243.531 26.053C243.586 26.108 243.651 26.153 243.716 26.203L244.021 26.508C244.846 27.333 246.176 27.333 246.991 26.518L247.311 26.198C247.371 26.148 247.431 26.108 247.486 26.053L256.641 16.898C256.916 16.623 257.356 16.623 257.631 16.898L257.641 16.908C257.916 17.183 257.916 17.623 257.641 17.898L247.991 27.548C247.176 28.363 247.176 29.693 248.001 30.518H248.006Z" fill="#EDF5FD" fill-opacity="0.08"/>
<path d="M361.805 18.01L343.965 0.23C343.835 0.1 343.655 0.025 343.47 0.025H340.135C340.02 0.01 339.905 0 339.785 0H323.335C323.15 0 322.97 0.075 322.84 0.205L305 17.99C304.61 18.38 304.385 18.92 304.385 19.48V38.45C304.385 39.01 304.61 39.55 305 39.94L322.84 57.725C322.97 57.855 323.15 57.93 323.335 57.93H326.67C326.785 57.945 326.9 57.955 327.02 57.955H343.47C343.655 57.955 343.835 57.88 343.965 57.75L361.805 39.965C362.195 39.575 362.42 39.035 362.42 38.475V19.505C362.42 18.945 362.195 18.405 361.805 18.015V18.01ZM359.76 39.55H346.14C344.975 39.55 344.035 40.49 344.035 41.645V55.29C344.035 55.675 343.72 55.99 343.335 55.99H343.325C342.94 55.99 342.625 55.675 342.625 55.29V42.345C342.625 42.23 342.615 42.115 342.6 42.005V41.62C342.6 40.465 341.66 39.525 340.495 39.525H326.995C326.88 39.525 326.765 39.535 326.65 39.55H326.33C325.165 39.55 324.225 40.49 324.225 41.645V41.985C324.21 42.095 324.2 42.21 324.2 42.325V55.27C324.2 55.655 323.885 55.97 323.5 55.97H323.49C323.105 55.97 322.79 55.655 322.79 55.27V41.625C322.79 40.47 321.85 39.53 320.685 39.53H307.065C306.68 39.53 306.365 39.215 306.365 38.83C306.365 38.535 306.55 38.28 306.81 38.18C306.935 38.2 307.065 38.21 307.2 38.21H320.7C321.865 38.21 322.805 37.27 322.805 36.115V21.825C322.805 20.67 321.865 19.73 320.7 19.73H307.2C307.07 19.73 306.94 19.74 306.81 19.76C306.55 19.66 306.365 19.405 306.365 19.11C306.365 18.725 306.68 18.41 307.065 18.41H320.685C321.85 18.41 322.79 17.47 322.79 16.315V2.66C322.79 2.275 323.105 1.96 323.49 1.96H323.5C323.885 1.96 324.2 2.275 324.2 2.66V15.605C324.2 15.72 324.21 15.835 324.225 15.945V16.33C324.225 17.485 325.165 18.425 326.33 18.425H339.83C339.945 18.425 340.06 18.415 340.175 18.4H340.495C341.66 18.4 342.6 17.46 342.6 16.305V15.965C342.615 15.855 342.625 15.74 342.625 15.625V2.685C342.625 2.3 342.94 1.985 343.325 1.985H343.335C343.72 1.985 344.035 2.3 344.035 2.685V16.33C344.035 17.485 344.975 18.425 346.14 18.425H359.76C360.145 18.425 360.46 18.74 360.46 19.125C360.46 19.42 360.275 19.675 360.015 19.775C359.89 19.755 359.76 19.745 359.625 19.745H346.125C344.96 19.745 344.02 20.685 344.02 21.84V36.13C344.02 37.285 344.96 38.225 346.125 38.225H359.625C359.755 38.225 359.885 38.215 360.015 38.195C360.275 38.295 360.46 38.55 360.46 38.845C360.46 39.23 360.145 39.545 359.76 39.545V39.55Z" fill="#EDF5FD" fill-opacity="0.08"/>
<path d="M462.845 15.618L460.405 13.178C460.355 13.118 460.31 13.053 460.255 12.993L448.625 1.36805C448.495 1.23805 448.315 1.16305 448.13 1.16305L422.94 1.12305C422.385 1.12305 421.845 1.34305 421.45 1.74305L419.3 3.89305L408.04 15.158C407.64 15.553 407.42 16.093 407.42 16.648L407.46 41.838C407.46 42.023 407.535 42.203 407.665 42.333L410.105 44.773C410.155 44.833 410.2 44.898 410.255 44.958L421.885 56.588C422.015 56.718 422.195 56.793 422.38 56.793L447.57 56.833C448.125 56.833 448.665 56.613 449.06 56.213L460.325 44.948L462.475 42.798C462.87 42.403 463.095 41.863 463.095 41.308L463.055 16.118C463.055 15.933 462.98 15.753 462.85 15.623L462.845 15.618ZM451.715 30.518L461.345 40.148C461.62 40.423 461.62 40.863 461.345 41.138C461.125 41.358 460.8 41.393 460.54 41.258C460.47 41.163 460.4 41.068 460.315 40.983L450.77 31.438C449.945 30.613 448.615 30.613 447.8 31.428L447.24 31.988L438.255 40.973L437.695 41.533C436.88 42.348 436.88 43.683 437.705 44.503L447.25 54.048C447.335 54.133 447.43 54.198 447.525 54.273C447.655 54.538 447.62 54.858 447.405 55.078C447.13 55.3531 446.69 55.3531 446.415 55.078L436.785 45.448C435.96 44.623 434.63 44.623 433.815 45.438L424.165 55.088C423.89 55.363 423.45 55.363 423.175 55.088L423.165 55.078C422.89 54.803 422.89 54.363 423.165 54.088L432.32 44.933C432.375 44.878 432.415 44.818 432.465 44.758L432.82 44.403C433.635 43.588 433.635 42.253 432.81 41.433L423.265 31.888C423.21 31.833 423.145 31.788 423.08 31.738L422.775 31.433C421.95 30.608 420.62 30.608 419.805 31.423L419.485 31.743C419.425 31.793 419.365 31.833 419.31 31.888L410.155 41.043C409.88 41.318 409.44 41.318 409.165 41.043L409.155 41.033C408.88 40.758 408.88 40.318 409.155 40.043L418.805 30.393C419.62 29.578 419.62 28.248 418.795 27.423L409.16 17.798C408.885 17.523 408.885 17.083 409.16 16.808C409.38 16.588 409.705 16.553 409.965 16.688C410.035 16.783 410.105 16.878 410.19 16.963L419.735 26.508C420.56 27.333 421.89 27.333 422.705 26.518L423.265 25.958L432.25 16.973L432.81 16.413C433.625 15.598 433.625 14.263 432.8 13.443L423.255 3.89305C423.17 3.80805 423.075 3.74305 422.98 3.66805C422.85 3.40305 422.885 3.08305 423.1 2.86305C423.375 2.58805 423.815 2.58805 424.09 2.86305L433.72 12.493C434.545 13.318 435.875 13.318 436.69 12.503L446.34 2.85305C446.615 2.57805 447.055 2.57805 447.33 2.85305L447.34 2.86305C447.615 3.13805 447.615 3.57805 447.34 3.85305L438.185 13.008C438.13 13.063 438.09 13.123 438.04 13.183L437.685 13.538C436.87 14.353 436.87 15.688 437.695 16.508L447.24 26.053C447.295 26.108 447.36 26.153 447.425 26.203L447.73 26.508C448.555 27.333 449.885 27.333 450.7 26.518L451.02 26.198C451.08 26.148 451.14 26.108 451.195 26.053L460.35 16.898C460.625 16.623 461.065 16.623 461.34 16.898L461.35 16.908C461.625 17.183 461.625 17.623 461.35 17.898L451.7 27.548C450.885 28.363 450.885 29.693 451.71 30.518H451.715Z" fill="#EDF5FD" fill-opacity="0.08"/>
<path d="M565.516 18.01L547.676 0.23C547.546 0.1 547.366 0.025 547.181 0.025H543.846C543.731 0.01 543.616 0 543.496 0H527.046C526.861 0 526.681 0.075 526.551 0.205L508.711 17.99C508.321 18.38 508.096 18.92 508.096 19.48V38.45C508.096 39.01 508.321 39.55 508.711 39.94L526.551 57.725C526.681 57.855 526.861 57.93 527.046 57.93H530.381C530.496 57.945 530.611 57.955 530.731 57.955H547.181C547.366 57.955 547.546 57.88 547.676 57.75L565.516 39.965C565.906 39.575 566.131 39.035 566.131 38.475V19.505C566.131 18.945 565.906 18.405 565.516 18.015V18.01ZM563.471 39.55H549.851C548.686 39.55 547.746 40.49 547.746 41.645V55.29C547.746 55.675 547.431 55.99 547.046 55.99H547.036C546.651 55.99 546.336 55.675 546.336 55.29V42.345C546.336 42.23 546.326 42.115 546.311 42.005V41.62C546.311 40.465 545.371 39.525 544.206 39.525H530.706C530.591 39.525 530.476 39.535 530.361 39.55H530.041C528.876 39.55 527.936 40.49 527.936 41.645V41.985C527.921 42.095 527.911 42.21 527.911 42.325V55.27C527.911 55.655 527.596 55.97 527.211 55.97H527.201C526.816 55.97 526.501 55.655 526.501 55.27V41.625C526.501 40.47 525.561 39.53 524.396 39.53H510.776C510.391 39.53 510.076 39.215 510.076 38.83C510.076 38.535 510.261 38.28 510.521 38.18C510.646 38.2 510.776 38.21 510.911 38.21H524.411C525.576 38.21 526.516 37.27 526.516 36.115V21.825C526.516 20.67 525.576 19.73 524.411 19.73H510.911C510.781 19.73 510.651 19.74 510.521 19.76C510.261 19.66 510.076 19.405 510.076 19.11C510.076 18.725 510.391 18.41 510.776 18.41H524.396C525.561 18.41 526.501 17.47 526.501 16.315V2.66C526.501 2.275 526.816 1.96 527.201 1.96H527.211C527.596 1.96 527.911 2.275 527.911 2.66V15.605C527.911 15.72 527.921 15.835 527.936 15.945V16.33C527.936 17.485 528.876 18.425 530.041 18.425H543.541C543.656 18.425 543.771 18.415 543.886 18.4H544.206C545.371 18.4 546.311 17.46 546.311 16.305V15.965C546.326 15.855 546.336 15.74 546.336 15.625V2.685C546.336 2.3 546.651 1.985 547.036 1.985H547.046C547.431 1.985 547.746 2.3 547.746 2.685V16.33C547.746 17.485 548.686 18.425 549.851 18.425H563.471C563.856 18.425 564.171 18.74 564.171 19.125C564.171 19.42 563.986 19.675 563.726 19.775C563.601 19.755 563.471 19.745 563.336 19.745H549.836C548.671 19.745 547.731 20.685 547.731 21.84V36.13C547.731 37.285 548.671 38.225 549.836 38.225H563.336C563.466 38.225 563.596 38.215 563.726 38.195C563.986 38.295 564.171 38.55 564.171 38.845C564.171 39.23 563.856 39.545 563.471 39.545V39.55Z" fill="#EDF5FD" fill-opacity="0.08"/>
<path d="M538.575 118.573L541.015 116.133C541.065 116.073 541.11 116.008 541.165 115.948L552.795 104.323C552.925 104.193 553.105 104.118 553.29 104.118L578.48 104.078C579.035 104.078 579.575 104.298 579.97 104.698L582.12 106.848L593.38 118.113C593.78 118.508 594 119.048 594 119.603L593.96 144.793C593.96 144.978 593.885 145.158 593.755 145.288L591.315 147.728C591.265 147.788 591.22 147.853 591.165 147.913L579.535 159.543C579.405 159.673 579.225 159.748 579.04 159.748L553.85 159.788C553.295 159.788 552.755 159.568 552.36 159.168L541.095 147.903L538.945 145.753C538.55 145.358 538.325 144.818 538.325 144.263L538.365 119.073C538.365 118.888 538.44 118.708 538.57 118.578L538.575 118.573ZM549.705 133.473L540.075 143.103C539.8 143.378 539.8 143.818 540.075 144.093C540.295 144.313 540.62 144.348 540.88 144.213C540.95 144.118 541.02 144.023 541.105 143.938L550.65 134.393C551.475 133.568 552.805 133.568 553.62 134.383L554.18 134.943L563.165 143.928L563.725 144.488C564.54 145.303 564.54 146.638 563.715 147.458L554.17 157.003C554.085 157.088 553.99 157.153 553.895 157.228C553.765 157.493 553.8 157.813 554.015 158.033C554.29 158.308 554.73 158.308 555.005 158.033L564.635 148.403C565.46 147.578 566.79 147.578 567.605 148.393L577.255 158.043C577.53 158.318 577.97 158.318 578.245 158.043L578.255 158.033C578.53 157.758 578.53 157.318 578.255 157.043L569.1 147.888C569.045 147.833 569.005 147.773 568.955 147.713L568.6 147.358C567.785 146.543 567.785 145.208 568.61 144.388L578.155 134.843C578.21 134.788 578.275 134.743 578.34 134.693L578.645 134.388C579.47 133.563 580.8 133.563 581.615 134.378L581.935 134.698C581.995 134.748 582.055 134.788 582.11 134.843L591.265 143.998C591.54 144.273 591.98 144.273 592.255 143.998L592.265 143.988C592.54 143.713 592.54 143.273 592.265 142.998L582.615 133.348C581.8 132.533 581.8 131.203 582.625 130.378L592.26 120.753C592.535 120.478 592.535 120.038 592.26 119.763C592.04 119.543 591.715 119.508 591.455 119.643C591.385 119.738 591.315 119.833 591.23 119.918L581.685 129.463C580.86 130.288 579.53 130.288 578.715 129.473L578.155 128.913L569.17 119.928L568.61 119.368C567.795 118.553 567.795 117.218 568.62 116.398L578.165 106.848C578.25 106.763 578.345 106.698 578.44 106.623C578.57 106.358 578.535 106.038 578.32 105.818C578.045 105.543 577.605 105.543 577.33 105.818L567.7 115.448C566.875 116.273 565.545 116.273 564.73 115.458L555.08 105.808C554.805 105.533 554.365 105.533 554.09 105.808L554.08 105.818C553.805 106.093 553.805 106.533 554.08 106.808L563.235 115.963C563.29 116.018 563.33 116.078 563.38 116.138L563.735 116.493C564.55 117.308 564.55 118.643 563.725 119.463L554.18 129.008C554.125 129.063 554.06 129.108 553.995 129.158L553.69 129.463C552.865 130.288 551.535 130.288 550.72 129.473L550.4 129.153C550.34 129.103 550.28 129.063 550.225 129.008L541.07 119.853C540.795 119.578 540.355 119.578 540.08 119.853L540.07 119.863C539.795 120.138 539.795 120.578 540.07 120.853L549.72 130.503C550.535 131.318 550.535 132.648 549.71 133.473H549.705Z" fill="#EDF5FD" fill-opacity="0.08"/>
<path d="M435.904 120.965L453.744 103.185C453.874 103.055 454.054 102.98 454.239 102.98H457.574C457.689 102.965 457.804 102.955 457.924 102.955H474.374C474.559 102.955 474.739 103.03 474.869 103.16L492.709 120.945C493.099 121.335 493.324 121.875 493.324 122.435V141.405C493.324 141.965 493.099 142.505 492.709 142.895L474.869 160.68C474.739 160.81 474.559 160.885 474.374 160.885H471.039C470.924 160.9 470.809 160.91 470.689 160.91H454.239C454.054 160.91 453.874 160.835 453.744 160.705L435.904 142.92C435.514 142.53 435.289 141.99 435.289 141.43V122.46C435.289 121.9 435.514 121.36 435.904 120.97V120.965ZM437.949 142.505H451.569C452.734 142.505 453.674 143.445 453.674 144.6V158.245C453.674 158.63 453.989 158.945 454.374 158.945H454.384C454.769 158.945 455.084 158.63 455.084 158.245V145.3C455.084 145.185 455.094 145.07 455.109 144.96V144.575C455.109 143.42 456.049 142.48 457.214 142.48H470.714C470.829 142.48 470.944 142.49 471.059 142.505H471.379C472.544 142.505 473.484 143.445 473.484 144.6V144.94C473.499 145.05 473.509 145.165 473.509 145.28V158.225C473.509 158.61 473.824 158.925 474.209 158.925H474.219C474.604 158.925 474.919 158.61 474.919 158.225V144.58C474.919 143.425 475.859 142.485 477.024 142.485H490.644C491.029 142.485 491.344 142.17 491.344 141.785C491.344 141.49 491.159 141.235 490.899 141.135C490.774 141.155 490.644 141.165 490.509 141.165H477.009C475.844 141.165 474.904 140.225 474.904 139.07V124.78C474.904 123.625 475.844 122.685 477.009 122.685H490.509C490.639 122.685 490.769 122.695 490.899 122.715C491.159 122.615 491.344 122.36 491.344 122.065C491.344 121.68 491.029 121.365 490.644 121.365H477.024C475.859 121.365 474.919 120.425 474.919 119.27V105.615C474.919 105.23 474.604 104.915 474.219 104.915H474.209C473.824 104.915 473.509 105.23 473.509 105.615V118.56C473.509 118.675 473.499 118.79 473.484 118.9V119.285C473.484 120.44 472.544 121.38 471.379 121.38H457.879C457.764 121.38 457.649 121.37 457.534 121.355H457.214C456.049 121.355 455.109 120.415 455.109 119.26V118.92C455.094 118.81 455.084 118.695 455.084 118.58V105.64C455.084 105.255 454.769 104.94 454.384 104.94H454.374C453.989 104.94 453.674 105.255 453.674 105.64V119.285C453.674 120.44 452.734 121.38 451.569 121.38H437.949C437.564 121.38 437.249 121.695 437.249 122.08C437.249 122.375 437.434 122.63 437.694 122.73C437.819 122.71 437.949 122.7 438.084 122.7H451.584C452.749 122.7 453.689 123.64 453.689 124.795V139.085C453.689 140.24 452.749 141.18 451.584 141.18H438.084C437.954 141.18 437.824 141.17 437.694 141.15C437.434 141.25 437.249 141.505 437.249 141.8C437.249 142.185 437.564 142.5 437.949 142.5V142.505Z" fill="#EDF5FD" fill-opacity="0.08"/>
<path d="M334.864 118.573L337.304 116.133C337.354 116.073 337.399 116.008 337.454 115.948L349.084 104.323C349.214 104.193 349.394 104.118 349.579 104.118L374.769 104.078C375.324 104.078 375.864 104.298 376.259 104.698L378.409 106.848L389.669 118.113C390.069 118.508 390.289 119.048 390.289 119.603L390.249 144.793C390.249 144.978 390.174 145.158 390.044 145.288L387.604 147.728C387.554 147.788 387.509 147.853 387.454 147.913L375.824 159.543C375.694 159.673 375.514 159.748 375.329 159.748L350.139 159.788C349.584 159.788 349.044 159.568 348.649 159.168L337.384 147.903L335.234 145.753C334.839 145.358 334.614 144.818 334.614 144.263L334.654 119.073C334.654 118.888 334.729 118.708 334.859 118.578L334.864 118.573ZM345.994 133.473L336.364 143.103C336.089 143.378 336.089 143.818 336.364 144.093C336.584 144.313 336.909 144.348 337.169 144.213C337.239 144.118 337.309 144.023 337.394 143.938L346.939 134.393C347.764 133.568 349.094 133.568 349.909 134.383L350.469 134.943L359.454 143.928L360.014 144.488C360.829 145.303 360.829 146.638 360.004 147.458L350.459 157.003C350.374 157.088 350.279 157.153 350.184 157.228C350.054 157.493 350.089 157.813 350.304 158.033C350.579 158.308 351.019 158.308 351.294 158.033L360.924 148.403C361.749 147.578 363.079 147.578 363.894 148.393L373.544 158.043C373.819 158.318 374.259 158.318 374.534 158.043L374.544 158.033C374.819 157.758 374.819 157.318 374.544 157.043L365.389 147.888C365.334 147.833 365.294 147.773 365.244 147.713L364.889 147.358C364.074 146.543 364.074 145.208 364.899 144.388L374.444 134.843C374.499 134.788 374.564 134.743 374.629 134.693L374.934 134.388C375.759 133.563 377.089 133.563 377.904 134.378L378.224 134.698C378.284 134.748 378.344 134.788 378.399 134.843L387.554 143.998C387.829 144.273 388.269 144.273 388.544 143.998L388.554 143.988C388.829 143.713 388.829 143.273 388.554 142.998L378.904 133.348C378.089 132.533 378.089 131.203 378.914 130.378L388.549 120.753C388.824 120.478 388.824 120.038 388.549 119.763C388.329 119.543 388.004 119.508 387.744 119.643C387.674 119.738 387.604 119.833 387.519 119.918L377.974 129.463C377.149 130.288 375.819 130.288 375.004 129.473L374.444 128.913L365.459 119.928L364.899 119.368C364.084 118.553 364.084 117.218 364.909 116.398L374.454 106.848C374.539 106.763 374.634 106.698 374.729 106.623C374.859 106.358 374.824 106.038 374.609 105.818C374.334 105.543 373.894 105.543 373.619 105.818L363.989 115.448C363.164 116.273 361.834 116.273 361.019 115.458L351.369 105.808C351.094 105.533 350.654 105.533 350.379 105.808L350.369 105.818C350.094 106.093 350.094 106.533 350.369 106.808L359.524 115.963C359.579 116.018 359.619 116.078 359.669 116.138L360.024 116.493C360.839 117.308 360.839 118.643 360.014 119.463L350.469 129.008C350.414 129.063 350.349 129.108 350.284 129.158L349.979 129.463C349.154 130.288 347.824 130.288 347.009 129.473L346.689 129.153C346.629 129.103 346.569 129.063 346.514 129.008L337.359 119.853C337.084 119.578 336.644 119.578 336.369 119.853L336.359 119.863C336.084 120.138 336.084 120.578 336.359 120.853L346.009 130.503C346.824 131.318 346.824 132.648 345.999 133.473H345.994Z" fill="#EDF5FD" fill-opacity="0.08"/>
<path d="M232.195 120.965L250.035 103.185C250.165 103.055 250.345 102.98 250.53 102.98H253.865C253.98 102.965 254.095 102.955 254.215 102.955H270.665C270.85 102.955 271.03 103.03 271.16 103.16L289 120.945C289.39 121.335 289.615 121.875 289.615 122.435V141.405C289.615 141.965 289.39 142.505 289 142.895L271.16 160.68C271.03 160.81 270.85 160.885 270.665 160.885H267.33C267.215 160.9 267.1 160.91 266.98 160.91H250.53C250.345 160.91 250.165 160.835 250.035 160.705L232.195 142.92C231.805 142.53 231.58 141.99 231.58 141.43V122.46C231.58 121.9 231.805 121.36 232.195 120.97V120.965ZM234.24 142.505H247.86C249.025 142.505 249.965 143.445 249.965 144.6V158.245C249.965 158.63 250.28 158.945 250.665 158.945H250.675C251.06 158.945 251.375 158.63 251.375 158.245V145.3C251.375 145.185 251.385 145.07 251.4 144.96V144.575C251.4 143.42 252.34 142.48 253.505 142.48H267.005C267.12 142.48 267.235 142.49 267.35 142.505H267.67C268.835 142.505 269.775 143.445 269.775 144.6V144.94C269.79 145.05 269.8 145.165 269.8 145.28V158.225C269.8 158.61 270.115 158.925 270.5 158.925H270.51C270.895 158.925 271.21 158.61 271.21 158.225V144.58C271.21 143.425 272.15 142.485 273.315 142.485H286.935C287.32 142.485 287.635 142.17 287.635 141.785C287.635 141.49 287.45 141.235 287.19 141.135C287.065 141.155 286.935 141.165 286.8 141.165H273.3C272.135 141.165 271.195 140.225 271.195 139.07V124.78C271.195 123.625 272.135 122.685 273.3 122.685H286.8C286.93 122.685 287.06 122.695 287.19 122.715C287.45 122.615 287.635 122.36 287.635 122.065C287.635 121.68 287.32 121.365 286.935 121.365H273.315C272.15 121.365 271.21 120.425 271.21 119.27V105.615C271.21 105.23 270.895 104.915 270.51 104.915H270.5C270.115 104.915 269.8 105.23 269.8 105.615V118.56C269.8 118.675 269.79 118.79 269.775 118.9V119.285C269.775 120.44 268.835 121.38 267.67 121.38H254.17C254.055 121.38 253.94 121.37 253.825 121.355H253.505C252.34 121.355 251.4 120.415 251.4 119.26V118.92C251.385 118.81 251.375 118.695 251.375 118.58V105.64C251.375 105.255 251.06 104.94 250.675 104.94H250.665C250.28 104.94 249.965 105.255 249.965 105.64V119.285C249.965 120.44 249.025 121.38 247.86 121.38H234.24C233.855 121.38 233.54 121.695 233.54 122.08C233.54 122.375 233.725 122.63 233.985 122.73C234.11 122.71 234.24 122.7 234.375 122.7H247.875C249.04 122.7 249.98 123.64 249.98 124.795V139.085C249.98 140.24 249.04 141.18 247.875 141.18H234.375C234.245 141.18 234.115 141.17 233.985 141.15C233.725 141.25 233.54 141.505 233.54 141.8C233.54 142.185 233.855 142.5 234.24 142.5V142.505Z" fill="#EDF5FD" fill-opacity="0.08"/>
<path d="M131.155 118.573L133.595 116.133C133.645 116.073 133.69 116.008 133.745 115.948L145.375 104.323C145.505 104.193 145.685 104.118 145.87 104.118L171.06 104.078C171.615 104.078 172.155 104.298 172.55 104.698L174.7 106.848L185.96 118.113C186.36 118.508 186.58 119.048 186.58 119.603L186.54 144.793C186.54 144.978 186.465 145.158 186.335 145.288L183.895 147.728C183.845 147.788 183.8 147.853 183.745 147.913L172.115 159.543C171.985 159.673 171.805 159.748 171.62 159.748L146.43 159.788C145.875 159.788 145.335 159.568 144.94 159.168L133.675 147.903L131.525 145.753C131.13 145.358 130.905 144.818 130.905 144.263L130.945 119.073C130.945 118.888 131.02 118.708 131.15 118.578L131.155 118.573ZM142.285 133.473L132.655 143.103C132.38 143.378 132.38 143.818 132.655 144.093C132.875 144.313 133.2 144.348 133.46 144.213C133.53 144.118 133.6 144.023 133.685 143.938L143.23 134.393C144.055 133.568 145.385 133.568 146.2 134.383L146.76 134.943L155.745 143.928L156.305 144.488C157.12 145.303 157.12 146.638 156.295 147.458L146.75 157.003C146.665 157.088 146.57 157.153 146.475 157.228C146.345 157.493 146.38 157.813 146.595 158.033C146.87 158.308 147.31 158.308 147.585 158.033L157.215 148.403C158.04 147.578 159.37 147.578 160.185 148.393L169.835 158.043C170.11 158.318 170.55 158.318 170.825 158.043L170.835 158.033C171.11 157.758 171.11 157.318 170.835 157.043L161.68 147.888C161.625 147.833 161.585 147.773 161.535 147.713L161.18 147.358C160.365 146.543 160.365 145.208 161.19 144.388L170.735 134.843C170.79 134.788 170.855 134.743 170.92 134.693L171.225 134.388C172.05 133.563 173.38 133.563 174.195 134.378L174.515 134.698C174.575 134.748 174.635 134.788 174.69 134.843L183.845 143.998C184.12 144.273 184.56 144.273 184.835 143.998L184.845 143.988C185.12 143.713 185.12 143.273 184.845 142.998L175.195 133.348C174.38 132.533 174.38 131.203 175.205 130.378L184.84 120.753C185.115 120.478 185.115 120.038 184.84 119.763C184.62 119.543 184.295 119.508 184.035 119.643C183.965 119.738 183.895 119.833 183.81 119.918L174.265 129.463C173.44 130.288 172.11 130.288 171.295 129.473L170.735 128.913L161.75 119.928L161.19 119.368C160.375 118.553 160.375 117.218 161.2 116.398L170.745 106.848C170.83 106.763 170.925 106.698 171.02 106.623C171.15 106.358 171.115 106.038 170.9 105.818C170.625 105.543 170.185 105.543 169.91 105.818L160.28 115.448C159.455 116.273 158.125 116.273 157.31 115.458L147.66 105.808C147.385 105.533 146.945 105.533 146.67 105.808L146.66 105.818C146.385 106.093 146.385 106.533 146.66 106.808L155.815 115.963C155.87 116.018 155.91 116.078 155.96 116.138L156.315 116.493C157.13 117.308 157.13 118.643 156.305 119.463L146.76 129.008C146.705 129.063 146.64 129.108 146.575 129.158L146.27 129.463C145.445 130.288 144.115 130.288 143.3 129.473L142.98 129.153C142.92 129.103 142.86 129.063 142.805 129.008L133.65 119.853C133.375 119.578 132.935 119.578 132.66 119.853L132.65 119.863C132.375 120.138 132.375 120.578 132.65 120.853L142.3 130.503C143.115 131.318 143.115 132.648 142.29 133.473H142.285Z" fill="#EDF5FD" fill-opacity="0.08"/>
<path d="M28.4843 120.965L46.3243 103.185C46.4543 103.055 46.6343 102.98 46.8193 102.98H50.1543C50.2693 102.965 50.3843 102.955 50.5043 102.955H66.9543C67.1393 102.955 67.3193 103.03 67.4493 103.16L85.2893 120.945C85.6793 121.335 85.9043 121.875 85.9043 122.435V141.405C85.9043 141.965 85.6793 142.505 85.2893 142.895L67.4493 160.68C67.3193 160.81 67.1393 160.885 66.9543 160.885H63.6193C63.5043 160.9 63.3893 160.91 63.2693 160.91H46.8193C46.6343 160.91 46.4543 160.835 46.3243 160.705L28.4843 142.92C28.0943 142.53 27.8693 141.99 27.8693 141.43V122.46C27.8693 121.9 28.0943 121.36 28.4843 120.97V120.965ZM30.5293 142.505H44.1493C45.3143 142.505 46.2543 143.445 46.2543 144.6V158.245C46.2543 158.63 46.5693 158.945 46.9543 158.945H46.9643C47.3493 158.945 47.6643 158.63 47.6643 158.245V145.3C47.6643 145.185 47.6743 145.07 47.6893 144.96V144.575C47.6893 143.42 48.6293 142.48 49.7943 142.48H63.2943C63.4093 142.48 63.5243 142.49 63.6393 142.505H63.9593C65.1243 142.505 66.0643 143.445 66.0643 144.6V144.94C66.0793 145.05 66.0893 145.165 66.0893 145.28V158.225C66.0893 158.61 66.4043 158.925 66.7893 158.925H66.7993C67.1843 158.925 67.4993 158.61 67.4993 158.225V144.58C67.4993 143.425 68.4393 142.485 69.6043 142.485H83.2243C83.6093 142.485 83.9243 142.17 83.9243 141.785C83.9243 141.49 83.7393 141.235 83.4793 141.135C83.3543 141.155 83.2243 141.165 83.0893 141.165H69.5893C68.4243 141.165 67.4843 140.225 67.4843 139.07V124.78C67.4843 123.625 68.4243 122.685 69.5893 122.685H83.0893C83.2193 122.685 83.3493 122.695 83.4793 122.715C83.7393 122.615 83.9243 122.36 83.9243 122.065C83.9243 121.68 83.6093 121.365 83.2243 121.365H69.6043C68.4393 121.365 67.4993 120.425 67.4993 119.27V105.615C67.4993 105.23 67.1843 104.915 66.7993 104.915H66.7893C66.4043 104.915 66.0893 105.23 66.0893 105.615V118.56C66.0893 118.675 66.0793 118.79 66.0643 118.9V119.285C66.0643 120.44 65.1243 121.38 63.9593 121.38H50.4593C50.3443 121.38 50.2293 121.37 50.1143 121.355H49.7943C48.6293 121.355 47.6893 120.415 47.6893 119.26V118.92C47.6743 118.81 47.6643 118.695 47.6643 118.58V105.64C47.6643 105.255 47.3493 104.94 46.9643 104.94H46.9543C46.5693 104.94 46.2543 105.255 46.2543 105.64V119.285C46.2543 120.44 45.3143 121.38 44.1493 121.38H30.5293C30.1443 121.38 29.8293 121.695 29.8293 122.08C29.8293 122.375 30.0143 122.63 30.2743 122.73C30.3993 122.71 30.5293 122.7 30.6643 122.7H44.1643C45.3293 122.7 46.2693 123.64 46.2693 124.795V139.085C46.2693 140.24 45.3293 141.18 44.1643 141.18H30.6643C30.5343 141.18 30.4043 141.17 30.2743 141.15C30.0143 141.25 29.8293 141.505 29.8293 141.8C29.8293 142.185 30.1443 142.5 30.5293 142.5V142.505Z" fill="#EDF5FD" fill-opacity="0.08"/>
<path d="M55.425 221.528L52.985 219.088C52.935 219.028 52.89 218.963 52.835 218.903L41.205 207.278C41.075 207.148 40.895 207.073 40.71 207.073L15.52 207.033C14.965 207.033 14.425 207.253 14.03 207.653L11.88 209.803L0.62 221.068C0.22 221.463 0 222.003 0 222.558L0.04 247.748C0.04 247.933 0.115 248.113 0.245 248.243L2.685 250.683C2.735 250.743 2.78 250.808 2.835 250.868L14.465 262.498C14.595 262.628 14.775 262.703 14.96 262.703L40.15 262.743C40.705 262.743 41.245 262.523 41.64 262.123L52.905 250.858L55.055 248.708C55.45 248.313 55.675 247.773 55.675 247.218L55.635 222.028C55.635 221.843 55.56 221.663 55.43 221.533L55.425 221.528ZM44.295 236.428L53.925 246.058C54.2 246.333 54.2 246.773 53.925 247.048C53.705 247.268 53.38 247.303 53.12 247.168C53.05 247.073 52.98 246.978 52.895 246.893L43.35 237.348C42.525 236.523 41.195 236.523 40.38 237.338L39.82 237.898L30.835 246.883L30.275 247.443C29.46 248.258 29.46 249.593 30.285 250.413L39.83 259.958C39.915 260.043 40.01 260.108 40.105 260.183C40.235 260.448 40.2 260.768 39.985 260.988C39.71 261.263 39.27 261.263 38.995 260.988L29.365 251.358C28.54 250.533 27.21 250.533 26.395 251.348L16.745 260.998C16.47 261.273 16.03 261.273 15.755 260.998L15.745 260.988C15.47 260.713 15.47 260.273 15.745 259.998L24.9 250.843C24.955 250.788 24.995 250.728 25.045 250.668L25.4 250.313C26.215 249.498 26.215 248.163 25.39 247.343L15.845 237.798C15.79 237.743 15.725 237.698 15.66 237.648L15.355 237.343C14.53 236.518 13.2 236.518 12.385 237.333L12.065 237.653C12.005 237.703 11.945 237.743 11.89 237.798L2.735 246.953C2.46 247.228 2.02 247.228 1.745 246.953L1.735 246.943C1.46 246.668 1.46 246.228 1.735 245.953L11.385 236.303C12.2 235.488 12.2 234.158 11.375 233.333L1.74 223.708C1.465 223.433 1.465 222.993 1.74 222.718C1.96 222.498 2.285 222.463 2.545 222.598C2.615 222.693 2.685 222.788 2.77 222.873L12.315 232.418C13.14 233.243 14.47 233.243 15.285 232.428L15.845 231.868L24.83 222.883L25.39 222.323C26.205 221.508 26.205 220.173 25.38 219.353L15.835 209.803C15.75 209.718 15.655 209.653 15.56 209.578C15.43 209.313 15.465 208.993 15.68 208.773C15.955 208.498 16.395 208.498 16.67 208.773L26.3 218.403C27.125 219.228 28.455 219.228 29.27 218.413L38.92 208.763C39.195 208.488 39.635 208.488 39.91 208.763L39.92 208.773C40.195 209.048 40.195 209.488 39.92 209.763L30.765 218.918C30.71 218.973 30.67 219.033 30.62 219.093L30.265 219.448C29.45 220.263 29.45 221.598 30.275 222.418L39.82 231.963C39.875 232.018 39.94 232.063 40.005 232.113L40.31 232.418C41.135 233.243 42.465 233.243 43.28 232.428L43.6 232.108C43.66 232.058 43.72 232.018 43.775 231.963L52.93 222.808C53.205 222.533 53.645 222.533 53.92 222.808L53.93 222.818C54.205 223.093 54.205 223.533 53.93 223.808L44.28 233.458C43.465 234.273 43.465 235.603 44.29 236.428H44.295Z" fill="#EDF5FD" fill-opacity="0.08"/>
<path d="M158.096 223.92L140.256 206.14C140.126 206.01 139.946 205.935 139.761 205.935H136.426C136.311 205.92 136.196 205.91 136.076 205.91H119.626C119.441 205.91 119.261 205.985 119.131 206.115L101.291 223.9C100.901 224.29 100.676 224.83 100.676 225.39V244.36C100.676 244.92 100.901 245.46 101.291 245.85L119.131 263.635C119.261 263.765 119.441 263.84 119.626 263.84H122.961C123.076 263.855 123.191 263.865 123.311 263.865H139.761C139.946 263.865 140.126 263.79 140.256 263.66L158.096 245.875C158.486 245.485 158.711 244.945 158.711 244.385V225.415C158.711 224.855 158.486 224.315 158.096 223.925V223.92ZM156.051 245.46H142.431C141.266 245.46 140.326 246.4 140.326 247.555V261.2C140.326 261.585 140.011 261.9 139.626 261.9H139.616C139.231 261.9 138.916 261.585 138.916 261.2V248.255C138.916 248.14 138.906 248.025 138.891 247.915V247.53C138.891 246.375 137.951 245.435 136.786 245.435H123.286C123.171 245.435 123.056 245.445 122.941 245.46H122.621C121.456 245.46 120.516 246.4 120.516 247.555V247.895C120.501 248.005 120.491 248.12 120.491 248.235V261.18C120.491 261.565 120.176 261.88 119.791 261.88H119.781C119.396 261.88 119.081 261.565 119.081 261.18V247.535C119.081 246.38 118.141 245.44 116.976 245.44H103.356C102.971 245.44 102.656 245.125 102.656 244.74C102.656 244.445 102.841 244.19 103.101 244.09C103.226 244.11 103.356 244.12 103.491 244.12H116.991C118.156 244.12 119.096 243.18 119.096 242.025V227.735C119.096 226.58 118.156 225.64 116.991 225.64H103.491C103.361 225.64 103.231 225.65 103.101 225.67C102.841 225.57 102.656 225.315 102.656 225.02C102.656 224.635 102.971 224.32 103.356 224.32H116.976C118.141 224.32 119.081 223.38 119.081 222.225V208.57C119.081 208.185 119.396 207.87 119.781 207.87H119.791C120.176 207.87 120.491 208.185 120.491 208.57V221.515C120.491 221.63 120.501 221.745 120.516 221.855V222.24C120.516 223.395 121.456 224.335 122.621 224.335H136.121C136.236 224.335 136.351 224.325 136.466 224.31H136.786C137.951 224.31 138.891 223.37 138.891 222.215V221.875C138.906 221.765 138.916 221.65 138.916 221.535V208.595C138.916 208.21 139.231 207.895 139.616 207.895H139.626C140.011 207.895 140.326 208.21 140.326 208.595V222.24C140.326 223.395 141.266 224.335 142.431 224.335H156.051C156.436 224.335 156.751 224.65 156.751 225.035C156.751 225.33 156.566 225.585 156.306 225.685C156.181 225.665 156.051 225.655 155.916 225.655H142.416C141.251 225.655 140.311 226.595 140.311 227.75V242.04C140.311 243.195 141.251 244.135 142.416 244.135H155.916C156.046 244.135 156.176 244.125 156.306 244.105C156.566 244.205 156.751 244.46 156.751 244.755C156.751 245.14 156.436 245.455 156.051 245.455V245.46Z" fill="#EDF5FD" fill-opacity="0.08"/>
<path d="M259.136 221.528L256.696 219.088C256.646 219.028 256.601 218.963 256.546 218.903L244.916 207.278C244.786 207.148 244.606 207.073 244.421 207.073L219.231 207.033C218.676 207.033 218.136 207.253 217.741 207.653L215.591 209.803L204.331 221.068C203.931 221.463 203.711 222.003 203.711 222.558L203.751 247.748C203.751 247.933 203.826 248.113 203.956 248.243L206.396 250.683C206.446 250.743 206.491 250.808 206.546 250.868L218.176 262.498C218.306 262.628 218.486 262.703 218.671 262.703L243.861 262.743C244.416 262.743 244.956 262.523 245.351 262.123L256.616 250.858L258.766 248.708C259.161 248.313 259.386 247.773 259.386 247.218L259.346 222.028C259.346 221.843 259.271 221.663 259.141 221.533L259.136 221.528ZM248.006 236.428L257.636 246.058C257.911 246.333 257.911 246.773 257.636 247.048C257.416 247.268 257.091 247.303 256.831 247.168C256.761 247.073 256.691 246.978 256.606 246.893L247.061 237.348C246.236 236.523 244.906 236.523 244.091 237.338L243.531 237.898L234.546 246.883L233.986 247.443C233.171 248.258 233.171 249.593 233.996 250.413L243.541 259.958C243.626 260.043 243.721 260.108 243.816 260.183C243.946 260.448 243.911 260.768 243.696 260.988C243.421 261.263 242.981 261.263 242.706 260.988L233.076 251.358C232.251 250.533 230.921 250.533 230.106 251.348L220.456 260.998C220.181 261.273 219.741 261.273 219.466 260.998L219.456 260.988C219.181 260.713 219.181 260.273 219.456 259.998L228.611 250.843C228.666 250.788 228.706 250.728 228.756 250.668L229.111 250.313C229.926 249.498 229.926 248.163 229.101 247.343L219.556 237.798C219.501 237.743 219.436 237.698 219.371 237.648L219.066 237.343C218.241 236.518 216.911 236.518 216.096 237.333L215.776 237.653C215.716 237.703 215.656 237.743 215.601 237.798L206.446 246.953C206.171 247.228 205.731 247.228 205.456 246.953L205.446 246.943C205.171 246.668 205.171 246.228 205.446 245.953L215.096 236.303C215.911 235.488 215.911 234.158 215.086 233.333L205.451 223.708C205.176 223.433 205.176 222.993 205.451 222.718C205.671 222.498 205.996 222.463 206.256 222.598C206.326 222.693 206.396 222.788 206.481 222.873L216.026 232.418C216.851 233.243 218.181 233.243 218.996 232.428L219.556 231.868L228.541 222.883L229.101 222.323C229.916 221.508 229.916 220.173 229.091 219.353L219.546 209.803C219.461 209.718 219.366 209.653 219.271 209.578C219.141 209.313 219.176 208.993 219.391 208.773C219.666 208.498 220.106 208.498 220.381 208.773L230.011 218.403C230.836 219.228 232.166 219.228 232.981 218.413L242.631 208.763C242.906 208.488 243.346 208.488 243.621 208.763L243.631 208.773C243.906 209.048 243.906 209.488 243.631 209.763L234.476 218.918C234.421 218.973 234.381 219.033 234.331 219.093L233.976 219.448C233.161 220.263 233.161 221.598 233.986 222.418L243.531 231.963C243.586 232.018 243.651 232.063 243.716 232.113L244.021 232.418C244.846 233.243 246.176 233.243 246.991 232.428L247.311 232.108C247.371 232.058 247.431 232.018 247.486 231.963L256.641 222.808C256.916 222.533 257.356 222.533 257.631 222.808L257.641 222.818C257.916 223.093 257.916 223.533 257.641 223.808L247.991 233.458C247.176 234.273 247.176 235.603 248.001 236.428H248.006Z" fill="#EDF5FD" fill-opacity="0.08"/>
<path d="M361.805 223.92L343.965 206.14C343.835 206.01 343.655 205.935 343.47 205.935H340.135C340.02 205.92 339.905 205.91 339.785 205.91H323.335C323.15 205.91 322.97 205.985 322.84 206.115L305 223.9C304.61 224.29 304.385 224.83 304.385 225.39V244.36C304.385 244.92 304.61 245.46 305 245.85L322.84 263.635C322.97 263.765 323.15 263.84 323.335 263.84H326.67C326.785 263.855 326.9 263.865 327.02 263.865H343.47C343.655 263.865 343.835 263.79 343.965 263.66L361.805 245.875C362.195 245.485 362.42 244.945 362.42 244.385V225.415C362.42 224.855 362.195 224.315 361.805 223.925V223.92ZM359.76 245.46H346.14C344.975 245.46 344.035 246.4 344.035 247.555V261.2C344.035 261.585 343.72 261.9 343.335 261.9H343.325C342.94 261.9 342.625 261.585 342.625 261.2V248.255C342.625 248.14 342.615 248.025 342.6 247.915V247.53C342.6 246.375 341.66 245.435 340.495 245.435H326.995C326.88 245.435 326.765 245.445 326.65 245.46H326.33C325.165 245.46 324.225 246.4 324.225 247.555V247.895C324.21 248.005 324.2 248.12 324.2 248.235V261.18C324.2 261.565 323.885 261.88 323.5 261.88H323.49C323.105 261.88 322.79 261.565 322.79 261.18V247.535C322.79 246.38 321.85 245.44 320.685 245.44H307.065C306.68 245.44 306.365 245.125 306.365 244.74C306.365 244.445 306.55 244.19 306.81 244.09C306.935 244.11 307.065 244.12 307.2 244.12H320.7C321.865 244.12 322.805 243.18 322.805 242.025V227.735C322.805 226.58 321.865 225.64 320.7 225.64H307.2C307.07 225.64 306.94 225.65 306.81 225.67C306.55 225.57 306.365 225.315 306.365 225.02C306.365 224.635 306.68 224.32 307.065 224.32H320.685C321.85 224.32 322.79 223.38 322.79 222.225V208.57C322.79 208.185 323.105 207.87 323.49 207.87H323.5C323.885 207.87 324.2 208.185 324.2 208.57V221.515C324.2 221.63 324.21 221.745 324.225 221.855V222.24C324.225 223.395 325.165 224.335 326.33 224.335H339.83C339.945 224.335 340.06 224.325 340.175 224.31H340.495C341.66 224.31 342.6 223.37 342.6 222.215V221.875C342.615 221.765 342.625 221.65 342.625 221.535V208.595C342.625 208.21 342.94 207.895 343.325 207.895H343.335C343.72 207.895 344.035 208.21 344.035 208.595V222.24C344.035 223.395 344.975 224.335 346.14 224.335H359.76C360.145 224.335 360.46 224.65 360.46 225.035C360.46 225.33 360.275 225.585 360.015 225.685C359.89 225.665 359.76 225.655 359.625 225.655H346.125C344.96 225.655 344.02 226.595 344.02 227.75V242.04C344.02 243.195 344.96 244.135 346.125 244.135H359.625C359.755 244.135 359.885 244.125 360.015 244.105C360.275 244.205 360.46 244.46 360.46 244.755C360.46 245.14 360.145 245.455 359.76 245.455V245.46Z" fill="#EDF5FD" fill-opacity="0.08"/>
<path d="M462.845 221.528L460.405 219.088C460.355 219.028 460.31 218.963 460.255 218.903L448.625 207.278C448.495 207.148 448.315 207.073 448.13 207.073L422.94 207.033C422.385 207.033 421.845 207.253 421.45 207.653L419.3 209.803L408.04 221.068C407.64 221.463 407.42 222.003 407.42 222.558L407.46 247.748C407.46 247.933 407.535 248.113 407.665 248.243L410.105 250.683C410.155 250.743 410.2 250.808 410.255 250.868L421.885 262.498C422.015 262.628 422.195 262.703 422.38 262.703L447.57 262.743C448.125 262.743 448.665 262.523 449.06 262.123L460.325 250.858L462.475 248.708C462.87 248.313 463.095 247.773 463.095 247.218L463.055 222.028C463.055 221.843 462.98 221.663 462.85 221.533L462.845 221.528ZM451.715 236.428L461.345 246.058C461.62 246.333 461.62 246.773 461.345 247.048C461.125 247.268 460.8 247.303 460.54 247.168C460.47 247.073 460.4 246.978 460.315 246.893L450.77 237.348C449.945 236.523 448.615 236.523 447.8 237.338L447.24 237.898L438.255 246.883L437.695 247.443C436.88 248.258 436.88 249.593 437.705 250.413L447.25 259.958C447.335 260.043 447.43 260.108 447.525 260.183C447.655 260.448 447.62 260.768 447.405 260.988C447.13 261.263 446.69 261.263 446.415 260.988L436.785 251.358C435.96 250.533 434.63 250.533 433.815 251.348L424.165 260.998C423.89 261.273 423.45 261.273 423.175 260.998L423.165 260.988C422.89 260.713 422.89 260.273 423.165 259.998L432.32 250.843C432.375 250.788 432.415 250.728 432.465 250.668L432.82 250.313C433.635 249.498 433.635 248.163 432.81 247.343L423.265 237.798C423.21 237.743 423.145 237.698 423.08 237.648L422.775 237.343C421.95 236.518 420.62 236.518 419.805 237.333L419.485 237.653C419.425 237.703 419.365 237.743 419.31 237.798L410.155 246.953C409.88 247.228 409.44 247.228 409.165 246.953L409.155 246.943C408.88 246.668 408.88 246.228 409.155 245.953L418.805 236.303C419.62 235.488 419.62 234.158 418.795 233.333L409.16 223.708C408.885 223.433 408.885 222.993 409.16 222.718C409.38 222.498 409.705 222.463 409.965 222.598C410.035 222.693 410.105 222.788 410.19 222.873L419.735 232.418C420.56 233.243 421.89 233.243 422.705 232.428L423.265 231.868L432.25 222.883L432.81 222.323C433.625 221.508 433.625 220.173 432.8 219.353L423.255 209.803C423.17 209.718 423.075 209.653 422.98 209.578C422.85 209.313 422.885 208.993 423.1 208.773C423.375 208.498 423.815 208.498 424.09 208.773L433.72 218.403C434.545 219.228 435.875 219.228 436.69 218.413L446.34 208.763C446.615 208.488 447.055 208.488 447.33 208.763L447.34 208.773C447.615 209.048 447.615 209.488 447.34 209.763L438.185 218.918C438.13 218.973 438.09 219.033 438.04 219.093L437.685 219.448C436.87 220.263 436.87 221.598 437.695 222.418L447.24 231.963C447.295 232.018 447.36 232.063 447.425 232.113L447.73 232.418C448.555 233.243 449.885 233.243 450.7 232.428L451.02 232.108C451.08 232.058 451.14 232.018 451.195 231.963L460.35 222.808C460.625 222.533 461.065 222.533 461.34 222.808L461.35 222.818C461.625 223.093 461.625 223.533 461.35 223.808L451.7 233.458C450.885 234.273 450.885 235.603 451.71 236.428H451.715Z" fill="#EDF5FD" fill-opacity="0.08"/>
<path d="M565.516 223.92L547.676 206.14C547.546 206.01 547.366 205.935 547.181 205.935H543.846C543.731 205.92 543.616 205.91 543.496 205.91H527.046C526.861 205.91 526.681 205.985 526.551 206.115L508.711 223.9C508.321 224.29 508.096 224.83 508.096 225.39V244.36C508.096 244.92 508.321 245.46 508.711 245.85L526.551 263.635C526.681 263.765 526.861 263.84 527.046 263.84H530.381C530.496 263.855 530.611 263.865 530.731 263.865H547.181C547.366 263.865 547.546 263.79 547.676 263.66L565.516 245.875C565.906 245.485 566.131 244.945 566.131 244.385V225.415C566.131 224.855 565.906 224.315 565.516 223.925V223.92ZM563.471 245.46H549.851C548.686 245.46 547.746 246.4 547.746 247.555V261.2C547.746 261.585 547.431 261.9 547.046 261.9H547.036C546.651 261.9 546.336 261.585 546.336 261.2V248.255C546.336 248.14 546.326 248.025 546.311 247.915V247.53C546.311 246.375 545.371 245.435 544.206 245.435H530.706C530.591 245.435 530.476 245.445 530.361 245.46H530.041C528.876 245.46 527.936 246.4 527.936 247.555V247.895C527.921 248.005 527.911 248.12 527.911 248.235V261.18C527.911 261.565 527.596 261.88 527.211 261.88H527.201C526.816 261.88 526.501 261.565 526.501 261.18V247.535C526.501 246.38 525.561 245.44 524.396 245.44H510.776C510.391 245.44 510.076 245.125 510.076 244.74C510.076 244.445 510.261 244.19 510.521 244.09C510.646 244.11 510.776 244.12 510.911 244.12H524.411C525.576 244.12 526.516 243.18 526.516 242.025V227.735C526.516 226.58 525.576 225.64 524.411 225.64H510.911C510.781 225.64 510.651 225.65 510.521 225.67C510.261 225.57 510.076 225.315 510.076 225.02C510.076 224.635 510.391 224.32 510.776 224.32H524.396C525.561 224.32 526.501 223.38 526.501 222.225V208.57C526.501 208.185 526.816 207.87 527.201 207.87H527.211C527.596 207.87 527.911 208.185 527.911 208.57V221.515C527.911 221.63 527.921 221.745 527.936 221.855V222.24C527.936 223.395 528.876 224.335 530.041 224.335H543.541C543.656 224.335 543.771 224.325 543.886 224.31H544.206C545.371 224.31 546.311 223.37 546.311 222.215V221.875C546.326 221.765 546.336 221.65 546.336 221.535V208.595C546.336 208.21 546.651 207.895 547.036 207.895H547.046C547.431 207.895 547.746 208.21 547.746 208.595V222.24C547.746 223.395 548.686 224.335 549.851 224.335H563.471C563.856 224.335 564.171 224.65 564.171 225.035C564.171 225.33 563.986 225.585 563.726 225.685C563.601 225.665 563.471 225.655 563.336 225.655H549.836C548.671 225.655 547.731 226.595 547.731 227.75V242.04C547.731 243.195 548.671 244.135 549.836 244.135H563.336C563.466 244.135 563.596 244.125 563.726 244.105C563.986 244.205 564.171 244.46 564.171 244.755C564.171 245.14 563.856 245.455 563.471 245.455V245.46Z" fill="#EDF5FD" fill-opacity="0.08"/>
<path d="M538.575 324.483L541.015 322.043C541.065 321.983 541.11 321.918 541.165 321.858L552.795 310.233C552.925 310.103 553.105 310.028 553.29 310.028L578.48 309.988C579.035 309.988 579.575 310.208 579.97 310.608L582.12 312.758L593.38 324.023C593.78 324.418 594 324.958 594 325.513L593.96 350.703C593.96 350.888 593.885 351.068 593.755 351.198L591.315 353.638C591.265 353.698 591.22 353.763 591.165 353.823L579.535 365.453C579.405 365.583 579.225 365.658 579.04 365.658L553.85 365.698C553.295 365.698 552.755 365.478 552.36 365.078L541.095 353.813L538.945 351.663C538.55 351.268 538.325 350.728 538.325 350.173L538.365 324.983C538.365 324.798 538.44 324.618 538.57 324.488L538.575 324.483ZM549.705 339.383L540.075 349.013C539.8 349.288 539.8 349.728 540.075 350.003C540.295 350.223 540.62 350.258 540.88 350.123C540.95 350.028 541.02 349.933 541.105 349.848L550.65 340.303C551.475 339.478 552.805 339.478 553.62 340.293L554.18 340.853L563.165 349.838L563.725 350.398C564.54 351.213 564.54 352.548 563.715 353.368L554.17 362.913C554.085 362.998 553.99 363.063 553.895 363.138C553.765 363.403 553.8 363.723 554.015 363.943C554.29 364.218 554.73 364.218 555.005 363.943L564.635 354.313C565.46 353.488 566.79 353.488 567.605 354.303L577.255 363.953C577.53 364.228 577.97 364.228 578.245 363.953L578.255 363.943C578.53 363.668 578.53 363.228 578.255 362.953L569.1 353.798C569.045 353.743 569.005 353.683 568.955 353.623L568.6 353.268C567.785 352.453 567.785 351.118 568.61 350.298L578.155 340.753C578.21 340.698 578.275 340.653 578.34 340.603L578.645 340.298C579.47 339.473 580.8 339.473 581.615 340.288L581.935 340.608C581.995 340.658 582.055 340.698 582.11 340.753L591.265 349.908C591.54 350.183 591.98 350.183 592.255 349.908L592.265 349.898C592.54 349.623 592.54 349.183 592.265 348.908L582.615 339.258C581.8 338.443 581.8 337.113 582.625 336.288L592.26 326.663C592.535 326.388 592.535 325.948 592.26 325.673C592.04 325.453 591.715 325.418 591.455 325.553C591.385 325.648 591.315 325.743 591.23 325.828L581.685 335.373C580.86 336.198 579.53 336.198 578.715 335.383L578.155 334.823L569.17 325.838L568.61 325.278C567.795 324.463 567.795 323.128 568.62 322.308L578.165 312.758C578.25 312.673 578.345 312.608 578.44 312.533C578.57 312.268 578.535 311.948 578.32 311.728C578.045 311.453 577.605 311.453 577.33 311.728L567.7 321.358C566.875 322.183 565.545 322.183 564.73 321.368L555.08 311.718C554.805 311.443 554.365 311.443 554.09 311.718L554.08 311.728C553.805 312.003 553.805 312.443 554.08 312.718L563.235 321.873C563.29 321.928 563.33 321.988 563.38 322.048L563.735 322.403C564.55 323.218 564.55 324.553 563.725 325.373L554.18 334.918C554.125 334.973 554.06 335.018 553.995 335.068L553.69 335.373C552.865 336.198 551.535 336.198 550.72 335.383L550.4 335.063C550.34 335.013 550.28 334.973 550.225 334.918L541.07 325.763C540.795 325.488 540.355 325.488 540.08 325.763L540.07 325.773C539.795 326.048 539.795 326.488 540.07 326.763L549.72 336.413C550.535 337.228 550.535 338.558 549.71 339.383H549.705Z" fill="#EDF5FD" fill-opacity="0.08"/>
<path d="M435.904 326.875L453.744 309.095C453.874 308.965 454.054 308.89 454.239 308.89H457.574C457.689 308.875 457.804 308.865 457.924 308.865H474.374C474.559 308.865 474.739 308.94 474.869 309.07L492.709 326.855C493.099 327.245 493.324 327.785 493.324 328.345V347.315C493.324 347.875 493.099 348.415 492.709 348.805L474.869 366.59C474.739 366.72 474.559 366.795 474.374 366.795H471.039C470.924 366.81 470.809 366.82 470.689 366.82H454.239C454.054 366.82 453.874 366.745 453.744 366.615L435.904 348.83C435.514 348.44 435.289 347.9 435.289 347.34V328.37C435.289 327.81 435.514 327.27 435.904 326.88V326.875ZM437.949 348.415H451.569C452.734 348.415 453.674 349.355 453.674 350.51V364.155C453.674 364.54 453.989 364.855 454.374 364.855H454.384C454.769 364.855 455.084 364.54 455.084 364.155V351.21C455.084 351.095 455.094 350.98 455.109 350.87V350.485C455.109 349.33 456.049 348.39 457.214 348.39H470.714C470.829 348.39 470.944 348.4 471.059 348.415H471.379C472.544 348.415 473.484 349.355 473.484 350.51V350.85C473.499 350.96 473.509 351.075 473.509 351.19V364.135C473.509 364.52 473.824 364.835 474.209 364.835H474.219C474.604 364.835 474.919 364.52 474.919 364.135V350.49C474.919 349.335 475.859 348.395 477.024 348.395H490.644C491.029 348.395 491.344 348.08 491.344 347.695C491.344 347.4 491.159 347.145 490.899 347.045C490.774 347.065 490.644 347.075 490.509 347.075H477.009C475.844 347.075 474.904 346.135 474.904 344.98V330.69C474.904 329.535 475.844 328.595 477.009 328.595H490.509C490.639 328.595 490.769 328.605 490.899 328.625C491.159 328.525 491.344 328.27 491.344 327.975C491.344 327.59 491.029 327.275 490.644 327.275H477.024C475.859 327.275 474.919 326.335 474.919 325.18V311.525C474.919 311.14 474.604 310.825 474.219 310.825H474.209C473.824 310.825 473.509 311.14 473.509 311.525V324.47C473.509 324.585 473.499 324.7 473.484 324.81V325.195C473.484 326.35 472.544 327.29 471.379 327.29H457.879C457.764 327.29 457.649 327.28 457.534 327.265H457.214C456.049 327.265 455.109 326.325 455.109 325.17V324.83C455.094 324.72 455.084 324.605 455.084 324.49V311.55C455.084 311.165 454.769 310.85 454.384 310.85H454.374C453.989 310.85 453.674 311.165 453.674 311.55V325.195C453.674 326.35 452.734 327.29 451.569 327.29H437.949C437.564 327.29 437.249 327.605 437.249 327.99C437.249 328.285 437.434 328.54 437.694 328.64C437.819 328.62 437.949 328.61 438.084 328.61H451.584C452.749 328.61 453.689 329.55 453.689 330.705V344.995C453.689 346.15 452.749 347.09 451.584 347.09H438.084C437.954 347.09 437.824 347.08 437.694 347.06C437.434 347.16 437.249 347.415 437.249 347.71C437.249 348.095 437.564 348.41 437.949 348.41V348.415Z" fill="#EDF5FD" fill-opacity="0.08"/>
<path d="M334.864 324.483L337.304 322.043C337.354 321.983 337.399 321.918 337.454 321.858L349.084 310.233C349.214 310.103 349.394 310.028 349.579 310.028L374.769 309.988C375.324 309.988 375.864 310.208 376.259 310.608L378.409 312.758L389.669 324.023C390.069 324.418 390.289 324.958 390.289 325.513L390.249 350.703C390.249 350.888 390.174 351.068 390.044 351.198L387.604 353.638C387.554 353.698 387.509 353.763 387.454 353.823L375.824 365.453C375.694 365.583 375.514 365.658 375.329 365.658L350.139 365.698C349.584 365.698 349.044 365.478 348.649 365.078L337.384 353.813L335.234 351.663C334.839 351.268 334.614 350.728 334.614 350.173L334.654 324.983C334.654 324.798 334.729 324.618 334.859 324.488L334.864 324.483ZM345.994 339.383L336.364 349.013C336.089 349.288 336.089 349.728 336.364 350.003C336.584 350.223 336.909 350.258 337.169 350.123C337.239 350.028 337.309 349.933 337.394 349.848L346.939 340.303C347.764 339.478 349.094 339.478 349.909 340.293L350.469 340.853L359.454 349.838L360.014 350.398C360.829 351.213 360.829 352.548 360.004 353.368L350.459 362.913C350.374 362.998 350.279 363.063 350.184 363.138C350.054 363.403 350.089 363.723 350.304 363.943C350.579 364.218 351.019 364.218 351.294 363.943L360.924 354.313C361.749 353.488 363.079 353.488 363.894 354.303L373.544 363.953C373.819 364.228 374.259 364.228 374.534 363.953L374.544 363.943C374.819 363.668 374.819 363.228 374.544 362.953L365.389 353.798C365.334 353.743 365.294 353.683 365.244 353.623L364.889 353.268C364.074 352.453 364.074 351.118 364.899 350.298L374.444 340.753C374.499 340.698 374.564 340.653 374.629 340.603L374.934 340.298C375.759 339.473 377.089 339.473 377.904 340.288L378.224 340.608C378.284 340.658 378.344 340.698 378.399 340.753L387.554 349.908C387.829 350.183 388.269 350.183 388.544 349.908L388.554 349.898C388.829 349.623 388.829 349.183 388.554 348.908L378.904 339.258C378.089 338.443 378.089 337.113 378.914 336.288L388.549 326.663C388.824 326.388 388.824 325.948 388.549 325.673C388.329 325.453 388.004 325.418 387.744 325.553C387.674 325.648 387.604 325.743 387.519 325.828L377.974 335.373C377.149 336.198 375.819 336.198 375.004 335.383L374.444 334.823L365.459 325.838L364.899 325.278C364.084 324.463 364.084 323.128 364.909 322.308L374.454 312.758C374.539 312.673 374.634 312.608 374.729 312.533C374.859 312.268 374.824 311.948 374.609 311.728C374.334 311.453 373.894 311.453 373.619 311.728L363.989 321.358C363.164 322.183 361.834 322.183 361.019 321.368L351.369 311.718C351.094 311.443 350.654 311.443 350.379 311.718L350.369 311.728C350.094 312.003 350.094 312.443 350.369 312.718L359.524 321.873C359.579 321.928 359.619 321.988 359.669 322.048L360.024 322.403C360.839 323.218 360.839 324.553 360.014 325.373L350.469 334.918C350.414 334.973 350.349 335.018 350.284 335.068L349.979 335.373C349.154 336.198 347.824 336.198 347.009 335.383L346.689 335.063C346.629 335.013 346.569 334.973 346.514 334.918L337.359 325.763C337.084 325.488 336.644 325.488 336.369 325.763L336.359 325.773C336.084 326.048 336.084 326.488 336.359 326.763L346.009 336.413C346.824 337.228 346.824 338.558 345.999 339.383H345.994Z" fill="#EDF5FD" fill-opacity="0.08"/>
<path d="M232.195 326.875L250.035 309.095C250.165 308.965 250.345 308.89 250.53 308.89H253.865C253.98 308.875 254.095 308.865 254.215 308.865H270.665C270.85 308.865 271.03 308.94 271.16 309.07L289 326.855C289.39 327.245 289.615 327.785 289.615 328.345V347.315C289.615 347.875 289.39 348.415 289 348.805L271.16 366.59C271.03 366.72 270.85 366.795 270.665 366.795H267.33C267.215 366.81 267.1 366.82 266.98 366.82H250.53C250.345 366.82 250.165 366.745 250.035 366.615L232.195 348.83C231.805 348.44 231.58 347.9 231.58 347.34V328.37C231.58 327.81 231.805 327.27 232.195 326.88V326.875ZM234.24 348.415H247.86C249.025 348.415 249.965 349.355 249.965 350.51V364.155C249.965 364.54 250.28 364.855 250.665 364.855H250.675C251.06 364.855 251.375 364.54 251.375 364.155V351.21C251.375 351.095 251.385 350.98 251.4 350.87V350.485C251.4 349.33 252.34 348.39 253.505 348.39H267.005C267.12 348.39 267.235 348.4 267.35 348.415H267.67C268.835 348.415 269.775 349.355 269.775 350.51V350.85C269.79 350.96 269.8 351.075 269.8 351.19V364.135C269.8 364.52 270.115 364.835 270.5 364.835H270.51C270.895 364.835 271.21 364.52 271.21 364.135V350.49C271.21 349.335 272.15 348.395 273.315 348.395H286.935C287.32 348.395 287.635 348.08 287.635 347.695C287.635 347.4 287.45 347.145 287.19 347.045C287.065 347.065 286.935 347.075 286.8 347.075H273.3C272.135 347.075 271.195 346.135 271.195 344.98V330.69C271.195 329.535 272.135 328.595 273.3 328.595H286.8C286.93 328.595 287.06 328.605 287.19 328.625C287.45 328.525 287.635 328.27 287.635 327.975C287.635 327.59 287.32 327.275 286.935 327.275H273.315C272.15 327.275 271.21 326.335 271.21 325.18V311.525C271.21 311.14 270.895 310.825 270.51 310.825H270.5C270.115 310.825 269.8 311.14 269.8 311.525V324.47C269.8 324.585 269.79 324.7 269.775 324.81V325.195C269.775 326.35 268.835 327.29 267.67 327.29H254.17C254.055 327.29 253.94 327.28 253.825 327.265H253.505C252.34 327.265 251.4 326.325 251.4 325.17V324.83C251.385 324.72 251.375 324.605 251.375 324.49V311.55C251.375 311.165 251.06 310.85 250.675 310.85H250.665C250.28 310.85 249.965 311.165 249.965 311.55V325.195C249.965 326.35 249.025 327.29 247.86 327.29H234.24C233.855 327.29 233.54 327.605 233.54 327.99C233.54 328.285 233.725 328.54 233.985 328.64C234.11 328.62 234.24 328.61 234.375 328.61H247.875C249.04 328.61 249.98 329.55 249.98 330.705V344.995C249.98 346.15 249.04 347.09 247.875 347.09H234.375C234.245 347.09 234.115 347.08 233.985 347.06C233.725 347.16 233.54 347.415 233.54 347.71C233.54 348.095 233.855 348.41 234.24 348.41V348.415Z" fill="#EDF5FD" fill-opacity="0.08"/>
<path d="M131.155 324.483L133.595 322.043C133.645 321.983 133.69 321.918 133.745 321.858L145.375 310.233C145.505 310.103 145.685 310.028 145.87 310.028L171.06 309.988C171.615 309.988 172.155 310.208 172.55 310.608L174.7 312.758L185.96 324.023C186.36 324.418 186.58 324.958 186.58 325.513L186.54 350.703C186.54 350.888 186.465 351.068 186.335 351.198L183.895 353.638C183.845 353.698 183.8 353.763 183.745 353.823L172.115 365.453C171.985 365.583 171.805 365.658 171.62 365.658L146.43 365.698C145.875 365.698 145.335 365.478 144.94 365.078L133.675 353.813L131.525 351.663C131.13 351.268 130.905 350.728 130.905 350.173L130.945 324.983C130.945 324.798 131.02 324.618 131.15 324.488L131.155 324.483ZM142.285 339.383L132.655 349.013C132.38 349.288 132.38 349.728 132.655 350.003C132.875 350.223 133.2 350.258 133.46 350.123C133.53 350.028 133.6 349.933 133.685 349.848L143.23 340.303C144.055 339.478 145.385 339.478 146.2 340.293L146.76 340.853L155.745 349.838L156.305 350.398C157.12 351.213 157.12 352.548 156.295 353.368L146.75 362.913C146.665 362.998 146.57 363.063 146.475 363.138C146.345 363.403 146.38 363.723 146.595 363.943C146.87 364.218 147.31 364.218 147.585 363.943L157.215 354.313C158.04 353.488 159.37 353.488 160.185 354.303L169.835 363.953C170.11 364.228 170.55 364.228 170.825 363.953L170.835 363.943C171.11 363.668 171.11 363.228 170.835 362.953L161.68 353.798C161.625 353.743 161.585 353.683 161.535 353.623L161.18 353.268C160.365 352.453 160.365 351.118 161.19 350.298L170.735 340.753C170.79 340.698 170.855 340.653 170.92 340.603L171.225 340.298C172.05 339.473 173.38 339.473 174.195 340.288L174.515 340.608C174.575 340.658 174.635 340.698 174.69 340.753L183.845 349.908C184.12 350.183 184.56 350.183 184.835 349.908L184.845 349.898C185.12 349.623 185.12 349.183 184.845 348.908L175.195 339.258C174.38 338.443 174.38 337.113 175.205 336.288L184.84 326.663C185.115 326.388 185.115 325.948 184.84 325.673C184.62 325.453 184.295 325.418 184.035 325.553C183.965 325.648 183.895 325.743 183.81 325.828L174.265 335.373C173.44 336.198 172.11 336.198 171.295 335.383L170.735 334.823L161.75 325.838L161.19 325.278C160.375 324.463 160.375 323.128 161.2 322.308L170.745 312.758C170.83 312.673 170.925 312.608 171.02 312.533C171.15 312.268 171.115 311.948 170.9 311.728C170.625 311.453 170.185 311.453 169.91 311.728L160.28 321.358C159.455 322.183 158.125 322.183 157.31 321.368L147.66 311.718C147.385 311.443 146.945 311.443 146.67 311.718L146.66 311.728C146.385 312.003 146.385 312.443 146.66 312.718L155.815 321.873C155.87 321.928 155.91 321.988 155.96 322.048L156.315 322.403C157.13 323.218 157.13 324.553 156.305 325.373L146.76 334.918C146.705 334.973 146.64 335.018 146.575 335.068L146.27 335.373C145.445 336.198 144.115 336.198 143.3 335.383L142.98 335.063C142.92 335.013 142.86 334.973 142.805 334.918L133.65 325.763C133.375 325.488 132.935 325.488 132.66 325.763L132.65 325.773C132.375 326.048 132.375 326.488 132.65 326.763L142.3 336.413C143.115 337.228 143.115 338.558 142.29 339.383H142.285Z" fill="#EDF5FD" fill-opacity="0.08"/>
<path d="M28.4843 326.875L46.3243 309.095C46.4543 308.965 46.6343 308.89 46.8193 308.89H50.1543C50.2693 308.875 50.3843 308.865 50.5043 308.865H66.9543C67.1393 308.865 67.3193 308.94 67.4493 309.07L85.2893 326.855C85.6793 327.245 85.9043 327.785 85.9043 328.345V347.315C85.9043 347.875 85.6793 348.415 85.2893 348.805L67.4493 366.59C67.3193 366.72 67.1393 366.795 66.9543 366.795H63.6193C63.5043 366.81 63.3893 366.82 63.2693 366.82H46.8193C46.6343 366.82 46.4543 366.745 46.3243 366.615L28.4843 348.83C28.0943 348.44 27.8693 347.9 27.8693 347.34V328.37C27.8693 327.81 28.0943 327.27 28.4843 326.88V326.875ZM30.5293 348.415H44.1493C45.3143 348.415 46.2543 349.355 46.2543 350.51V364.155C46.2543 364.54 46.5693 364.855 46.9543 364.855H46.9643C47.3493 364.855 47.6643 364.54 47.6643 364.155V351.21C47.6643 351.095 47.6743 350.98 47.6893 350.87V350.485C47.6893 349.33 48.6293 348.39 49.7943 348.39H63.2943C63.4093 348.39 63.5243 348.4 63.6393 348.415H63.9593C65.1243 348.415 66.0643 349.355 66.0643 350.51V350.85C66.0793 350.96 66.0893 351.075 66.0893 351.19V364.135C66.0893 364.52 66.4043 364.835 66.7893 364.835H66.7993C67.1843 364.835 67.4993 364.52 67.4993 364.135V350.49C67.4993 349.335 68.4393 348.395 69.6043 348.395H83.2243C83.6093 348.395 83.9243 348.08 83.9243 347.695C83.9243 347.4 83.7393 347.145 83.4793 347.045C83.3543 347.065 83.2243 347.075 83.0893 347.075H69.5893C68.4243 347.075 67.4843 346.135 67.4843 344.98V330.69C67.4843 329.535 68.4243 328.595 69.5893 328.595H83.0893C83.2193 328.595 83.3493 328.605 83.4793 328.625C83.7393 328.525 83.9243 328.27 83.9243 327.975C83.9243 327.59 83.6093 327.275 83.2243 327.275H69.6043C68.4393 327.275 67.4993 326.335 67.4993 325.18V311.525C67.4993 311.14 67.1843 310.825 66.7993 310.825H66.7893C66.4043 310.825 66.0893 311.14 66.0893 311.525V324.47C66.0893 324.585 66.0793 324.7 66.0643 324.81V325.195C66.0643 326.35 65.1243 327.29 63.9593 327.29H50.4593C50.3443 327.29 50.2293 327.28 50.1143 327.265H49.7943C48.6293 327.265 47.6893 326.325 47.6893 325.17V324.83C47.6743 324.72 47.6643 324.605 47.6643 324.49V311.55C47.6643 311.165 47.3493 310.85 46.9643 310.85H46.9543C46.5693 310.85 46.2543 311.165 46.2543 311.55V325.195C46.2543 326.35 45.3143 327.29 44.1493 327.29H30.5293C30.1443 327.29 29.8293 327.605 29.8293 327.99C29.8293 328.285 30.0143 328.54 30.2743 328.64C30.3993 328.62 30.5293 328.61 30.6643 328.61H44.1643C45.3293 328.61 46.2693 329.55 46.2693 330.705V344.995C46.2693 346.15 45.3293 347.09 44.1643 347.09H30.6643C30.5343 347.09 30.4043 347.08 30.2743 347.06C30.0143 347.16 29.8293 347.415 29.8293 347.71C29.8293 348.095 30.1443 348.41 30.5293 348.41V348.415Z" fill="#EDF5FD" fill-opacity="0.08"/>
<path d="M361.805 429.83L343.965 412.05C343.835 411.92 343.655 411.845 343.47 411.845H340.135C340.02 411.83 339.905 411.82 339.785 411.82H323.335C323.15 411.82 322.97 411.895 322.84 412.025L305 429.81C304.61 430.2 304.385 430.74 304.385 431.3V450.27C304.385 450.83 304.61 451.37 305 451.76L322.84 469.545C322.97 469.675 323.15 469.75 323.335 469.75H326.67C326.785 469.765 326.9 469.775 327.02 469.775H343.47C343.655 469.775 343.835 469.7 343.965 469.57L361.805 451.785C362.195 451.395 362.42 450.855 362.42 450.295V431.325C362.42 430.765 362.195 430.225 361.805 429.835V429.83ZM359.76 451.37H346.14C344.975 451.37 344.035 452.31 344.035 453.465V467.11C344.035 467.495 343.72 467.81 343.335 467.81H343.325C342.94 467.81 342.625 467.495 342.625 467.11V454.165C342.625 454.05 342.615 453.935 342.6 453.825V453.44C342.6 452.285 341.66 451.345 340.495 451.345H326.995C326.88 451.345 326.765 451.355 326.65 451.37H326.33C325.165 451.37 324.225 452.31 324.225 453.465V453.805C324.21 453.915 324.2 454.03 324.2 454.145V467.09C324.2 467.475 323.885 467.79 323.5 467.79H323.49C323.105 467.79 322.79 467.475 322.79 467.09V453.445C322.79 452.29 321.85 451.35 320.685 451.35H307.065C306.68 451.35 306.365 451.035 306.365 450.65C306.365 450.355 306.55 450.1 306.81 450C306.935 450.02 307.065 450.03 307.2 450.03H320.7C321.865 450.03 322.805 449.09 322.805 447.935V433.645C322.805 432.49 321.865 431.55 320.7 431.55H307.2C307.07 431.55 306.94 431.56 306.81 431.58C306.55 431.48 306.365 431.225 306.365 430.93C306.365 430.545 306.68 430.23 307.065 430.23H320.685C321.85 430.23 322.79 429.29 322.79 428.135V414.48C322.79 414.095 323.105 413.78 323.49 413.78H323.5C323.885 413.78 324.2 414.095 324.2 414.48V427.425C324.2 427.54 324.21 427.655 324.225 427.765V428.15C324.225 429.305 325.165 430.245 326.33 430.245H339.83C339.945 430.245 340.06 430.235 340.175 430.22H340.495C341.66 430.22 342.6 429.28 342.6 428.125V427.785C342.615 427.675 342.625 427.56 342.625 427.445V414.505C342.625 414.12 342.94 413.805 343.325 413.805H343.335C343.72 413.805 344.035 414.12 344.035 414.505V428.15C344.035 429.305 344.975 430.245 346.14 430.245H359.76C360.145 430.245 360.46 430.56 360.46 430.945C360.46 431.24 360.275 431.495 360.015 431.595C359.89 431.575 359.76 431.565 359.625 431.565H346.125C344.96 431.565 344.02 432.505 344.02 433.66V447.95C344.02 449.105 344.96 450.045 346.125 450.045H359.625C359.755 450.045 359.885 450.035 360.015 450.015C360.275 450.115 360.46 450.37 360.46 450.665C360.46 451.05 360.145 451.365 359.76 451.365V451.37Z" fill="#EDF5FD" fill-opacity="0.08"/>
<path d="M462.845 427.438L460.405 424.998C460.355 424.938 460.31 424.873 460.255 424.813L448.625 413.188C448.495 413.058 448.315 412.983 448.13 412.983L422.94 412.943C422.385 412.943 421.845 413.163 421.45 413.563L419.3 415.713L408.04 426.978C407.64 427.373 407.42 427.913 407.42 428.468L407.46 453.658C407.46 453.843 407.535 454.023 407.665 454.153L410.105 456.593C410.155 456.653 410.2 456.718 410.255 456.778L421.885 468.408C422.015 468.538 422.195 468.613 422.38 468.613L447.57 468.653C448.125 468.653 448.665 468.433 449.06 468.033L460.325 456.768L462.475 454.618C462.87 454.223 463.095 453.683 463.095 453.128L463.055 427.938C463.055 427.753 462.98 427.573 462.85 427.443L462.845 427.438ZM451.715 442.338L461.345 451.968C461.62 452.243 461.62 452.683 461.345 452.958C461.125 453.178 460.8 453.213 460.54 453.078C460.47 452.983 460.4 452.888 460.315 452.803L450.77 443.258C449.945 442.433 448.615 442.433 447.8 443.248L447.24 443.808L438.255 452.793L437.695 453.353C436.88 454.168 436.88 455.503 437.705 456.323L447.25 465.868C447.335 465.953 447.43 466.018 447.525 466.093C447.655 466.358 447.62 466.678 447.405 466.898C447.13 467.173 446.69 467.173 446.415 466.898L436.785 457.268C435.96 456.443 434.63 456.443 433.815 457.258L424.165 466.908C423.89 467.183 423.45 467.183 423.175 466.908L423.165 466.898C422.89 466.623 422.89 466.183 423.165 465.908L432.32 456.753C432.375 456.698 432.415 456.638 432.465 456.578L432.82 456.223C433.635 455.408 433.635 454.073 432.81 453.253L423.265 443.708C423.21 443.653 423.145 443.608 423.08 443.558L422.775 443.253C421.95 442.428 420.62 442.428 419.805 443.243L419.485 443.563C419.425 443.613 419.365 443.653 419.31 443.708L410.155 452.863C409.88 453.138 409.44 453.138 409.165 452.863L409.155 452.853C408.88 452.578 408.88 452.138 409.155 451.863L418.805 442.213C419.62 441.398 419.62 440.068 418.795 439.243L409.16 429.618C408.885 429.343 408.885 428.903 409.16 428.628C409.38 428.408 409.705 428.373 409.965 428.508C410.035 428.603 410.105 428.698 410.19 428.783L419.735 438.328C420.56 439.153 421.89 439.153 422.705 438.338L423.265 437.778L432.25 428.793L432.81 428.233C433.625 427.418 433.625 426.083 432.8 425.263L423.255 415.713C423.17 415.628 423.075 415.563 422.98 415.488C422.85 415.223 422.885 414.903 423.1 414.683C423.375 414.408 423.815 414.408 424.09 414.683L433.72 424.313C434.545 425.138 435.875 425.138 436.69 424.323L446.34 414.673C446.615 414.398 447.055 414.398 447.33 414.673L447.34 414.683C447.615 414.958 447.615 415.398 447.34 415.673L438.185 424.828C438.13 424.883 438.09 424.943 438.04 425.003L437.685 425.358C436.87 426.173 436.87 427.508 437.695 428.328L447.24 437.873C447.295 437.928 447.36 437.973 447.425 438.023L447.73 438.328C448.555 439.153 449.885 439.153 450.7 438.338L451.02 438.018C451.08 437.968 451.14 437.928 451.195 437.873L460.35 428.718C460.625 428.443 461.065 428.443 461.34 428.718L461.35 428.728C461.625 429.003 461.625 429.443 461.35 429.718L451.7 439.368C450.885 440.183 450.885 441.513 451.71 442.338H451.715Z" fill="#EDF5FD" fill-opacity="0.08"/>
<path d="M565.516 429.83L547.676 412.05C547.546 411.92 547.366 411.845 547.181 411.845H543.846C543.731 411.83 543.616 411.82 543.496 411.82H527.046C526.861 411.82 526.681 411.895 526.551 412.025L508.711 429.81C508.321 430.2 508.096 430.74 508.096 431.3V450.27C508.096 450.83 508.321 451.37 508.711 451.76L526.551 469.545C526.681 469.675 526.861 469.75 527.046 469.75H530.381C530.496 469.765 530.611 469.775 530.731 469.775H547.181C547.366 469.775 547.546 469.7 547.676 469.57L565.516 451.785C565.906 451.395 566.131 450.855 566.131 450.295V431.325C566.131 430.765 565.906 430.225 565.516 429.835V429.83ZM563.471 451.37H549.851C548.686 451.37 547.746 452.31 547.746 453.465V467.11C547.746 467.495 547.431 467.81 547.046 467.81H547.036C546.651 467.81 546.336 467.495 546.336 467.11V454.165C546.336 454.05 546.326 453.935 546.311 453.825V453.44C546.311 452.285 545.371 451.345 544.206 451.345H530.706C530.591 451.345 530.476 451.355 530.361 451.37H530.041C528.876 451.37 527.936 452.31 527.936 453.465V453.805C527.921 453.915 527.911 454.03 527.911 454.145V467.09C527.911 467.475 527.596 467.79 527.211 467.79H527.201C526.816 467.79 526.501 467.475 526.501 467.09V453.445C526.501 452.29 525.561 451.35 524.396 451.35H510.776C510.391 451.35 510.076 451.035 510.076 450.65C510.076 450.355 510.261 450.1 510.521 450C510.646 450.02 510.776 450.03 510.911 450.03H524.411C525.576 450.03 526.516 449.09 526.516 447.935V433.645C526.516 432.49 525.576 431.55 524.411 431.55H510.911C510.781 431.55 510.651 431.56 510.521 431.58C510.261 431.48 510.076 431.225 510.076 430.93C510.076 430.545 510.391 430.23 510.776 430.23H524.396C525.561 430.23 526.501 429.29 526.501 428.135V414.48C526.501 414.095 526.816 413.78 527.201 413.78H527.211C527.596 413.78 527.911 414.095 527.911 414.48V427.425C527.911 427.54 527.921 427.655 527.936 427.765V428.15C527.936 429.305 528.876 430.245 530.041 430.245H543.541C543.656 430.245 543.771 430.235 543.886 430.22H544.206C545.371 430.22 546.311 429.28 546.311 428.125V427.785C546.326 427.675 546.336 427.56 546.336 427.445V414.505C546.336 414.12 546.651 413.805 547.036 413.805H547.046C547.431 413.805 547.746 414.12 547.746 414.505V428.15C547.746 429.305 548.686 430.245 549.851 430.245H563.471C563.856 430.245 564.171 430.56 564.171 430.945C564.171 431.24 563.986 431.495 563.726 431.595C563.601 431.575 563.471 431.565 563.336 431.565H549.836C548.671 431.565 547.731 432.505 547.731 433.66V447.95C547.731 449.105 548.671 450.045 549.836 450.045H563.336C563.466 450.045 563.596 450.035 563.726 450.015C563.986 450.115 564.171 450.37 564.171 450.665C564.171 451.05 563.856 451.365 563.471 451.365V451.37Z" fill="#EDF5FD" fill-opacity="0.08"/>
<path d="M538.575 530.392L541.015 527.952C541.065 527.892 541.11 527.827 541.165 527.767L552.795 516.142C552.925 516.012 553.105 515.937 553.29 515.937L578.48 515.897C579.035 515.897 579.575 516.117 579.97 516.517L582.12 518.667L593.38 529.932C593.78 530.327 594 530.867 594 531.422L593.96 556.612C593.96 556.797 593.885 556.977 593.755 557.107L591.315 559.547C591.265 559.607 591.22 559.672 591.165 559.732L579.535 571.362C579.405 571.492 579.225 571.567 579.04 571.567L553.85 571.607C553.295 571.607 552.755 571.387 552.36 570.987L541.095 559.722L538.945 557.572C538.55 557.177 538.325 556.637 538.325 556.082L538.365 530.892C538.365 530.707 538.44 530.527 538.57 530.397L538.575 530.392ZM549.705 545.292L540.075 554.922C539.8 555.197 539.8 555.637 540.075 555.912C540.295 556.132 540.62 556.167 540.88 556.032C540.95 555.937 541.02 555.842 541.105 555.757L550.65 546.212C551.475 545.387 552.805 545.387 553.62 546.202L554.18 546.762L563.165 555.747L563.725 556.307C564.54 557.122 564.54 558.457 563.715 559.277L554.17 568.822C554.085 568.907 553.99 568.972 553.895 569.047C553.765 569.312 553.8 569.632 554.015 569.852C554.29 570.127 554.73 570.127 555.005 569.852L564.635 560.222C565.46 559.397 566.79 559.397 567.605 560.212L577.255 569.862C577.53 570.137 577.97 570.137 578.245 569.862L578.255 569.852C578.53 569.577 578.53 569.137 578.255 568.862L569.1 559.707C569.045 559.652 569.005 559.592 568.955 559.532L568.6 559.177C567.785 558.362 567.785 557.027 568.61 556.207L578.155 546.662C578.21 546.607 578.275 546.562 578.34 546.512L578.645 546.207C579.47 545.382 580.8 545.382 581.615 546.197L581.935 546.517C581.995 546.567 582.055 546.607 582.11 546.662L591.265 555.817C591.54 556.092 591.98 556.092 592.255 555.817L592.265 555.807C592.54 555.532 592.54 555.092 592.265 554.817L582.615 545.167C581.8 544.352 581.8 543.022 582.625 542.197L592.26 532.572C592.535 532.297 592.535 531.857 592.26 531.582C592.04 531.362 591.715 531.327 591.455 531.462C591.385 531.557 591.315 531.652 591.23 531.737L581.685 541.282C580.86 542.107 579.53 542.107 578.715 541.292L578.155 540.732L569.17 531.747L568.61 531.187C567.795 530.372 567.795 529.037 568.62 528.217L578.165 518.667C578.25 518.582 578.345 518.517 578.44 518.442C578.57 518.177 578.535 517.857 578.32 517.637C578.045 517.362 577.605 517.362 577.33 517.637L567.7 527.267C566.875 528.092 565.545 528.092 564.73 527.277L555.08 517.627C554.805 517.352 554.365 517.352 554.09 517.627L554.08 517.637C553.805 517.912 553.805 518.352 554.08 518.627L563.235 527.782C563.29 527.837 563.33 527.897 563.38 527.957L563.735 528.312C564.55 529.127 564.55 530.462 563.725 531.282L554.18 540.827C554.125 540.882 554.06 540.927 553.995 540.977L553.69 541.282C552.865 542.107 551.535 542.107 550.72 541.292L550.4 540.972C550.34 540.922 550.28 540.882 550.225 540.827L541.07 531.672C540.795 531.397 540.355 531.397 540.08 531.672L540.07 531.682C539.795 531.957 539.795 532.397 540.07 532.672L549.72 542.322C550.535 543.137 550.535 544.467 549.71 545.292H549.705Z" fill="#EDF5FD" fill-opacity="0.08"/>
<path d="M435.904 532.785L453.744 515.005C453.874 514.875 454.054 514.8 454.239 514.8H457.574C457.689 514.785 457.804 514.775 457.924 514.775H474.374C474.559 514.775 474.739 514.85 474.869 514.98L492.709 532.765C493.099 533.155 493.324 533.695 493.324 534.255V553.225C493.324 553.785 493.099 554.325 492.709 554.715L474.869 572.5C474.739 572.63 474.559 572.705 474.374 572.705H471.039C470.924 572.72 470.809 572.73 470.689 572.73H454.239C454.054 572.73 453.874 572.655 453.744 572.525L435.904 554.74C435.514 554.35 435.289 553.81 435.289 553.25V534.28C435.289 533.72 435.514 533.18 435.904 532.79V532.785ZM437.949 554.325H451.569C452.734 554.325 453.674 555.265 453.674 556.42V570.065C453.674 570.45 453.989 570.765 454.374 570.765H454.384C454.769 570.765 455.084 570.45 455.084 570.065V557.12C455.084 557.005 455.094 556.89 455.109 556.78V556.395C455.109 555.24 456.049 554.3 457.214 554.3H470.714C470.829 554.3 470.944 554.31 471.059 554.325H471.379C472.544 554.325 473.484 555.265 473.484 556.42V556.76C473.499 556.87 473.509 556.985 473.509 557.1V570.045C473.509 570.43 473.824 570.745 474.209 570.745H474.219C474.604 570.745 474.919 570.43 474.919 570.045V556.4C474.919 555.245 475.859 554.305 477.024 554.305H490.644C491.029 554.305 491.344 553.99 491.344 553.605C491.344 553.31 491.159 553.055 490.899 552.955C490.774 552.975 490.644 552.985 490.509 552.985H477.009C475.844 552.985 474.904 552.045 474.904 550.89V536.6C474.904 535.445 475.844 534.505 477.009 534.505H490.509C490.639 534.505 490.769 534.515 490.899 534.535C491.159 534.435 491.344 534.18 491.344 533.885C491.344 533.5 491.029 533.185 490.644 533.185H477.024C475.859 533.185 474.919 532.245 474.919 531.09V517.435C474.919 517.05 474.604 516.735 474.219 516.735H474.209C473.824 516.735 473.509 517.05 473.509 517.435V530.38C473.509 530.495 473.499 530.61 473.484 530.72V531.105C473.484 532.26 472.544 533.2 471.379 533.2H457.879C457.764 533.2 457.649 533.19 457.534 533.175H457.214C456.049 533.175 455.109 532.235 455.109 531.08V530.74C455.094 530.63 455.084 530.515 455.084 530.4V517.46C455.084 517.075 454.769 516.76 454.384 516.76H454.374C453.989 516.76 453.674 517.075 453.674 517.46V531.105C453.674 532.26 452.734 533.2 451.569 533.2H437.949C437.564 533.2 437.249 533.515 437.249 533.9C437.249 534.195 437.434 534.45 437.694 534.55C437.819 534.53 437.949 534.52 438.084 534.52H451.584C452.749 534.52 453.689 535.46 453.689 536.615V550.905C453.689 552.06 452.749 553 451.584 553H438.084C437.954 553 437.824 552.99 437.694 552.97C437.434 553.07 437.249 553.325 437.249 553.62C437.249 554.005 437.564 554.32 437.949 554.32V554.325Z" fill="#EDF5FD" fill-opacity="0.08"/>
<path d="M334.864 530.392L337.304 527.952C337.354 527.892 337.399 527.827 337.454 527.767L349.084 516.142C349.214 516.012 349.394 515.937 349.579 515.937L374.769 515.897C375.324 515.897 375.864 516.117 376.259 516.517L378.409 518.667L389.669 529.932C390.069 530.327 390.289 530.867 390.289 531.422L390.249 556.612C390.249 556.797 390.174 556.977 390.044 557.107L387.604 559.547C387.554 559.607 387.509 559.672 387.454 559.732L375.824 571.362C375.694 571.492 375.514 571.567 375.329 571.567L350.139 571.607C349.584 571.607 349.044 571.387 348.649 570.987L337.384 559.722L335.234 557.572C334.839 557.177 334.614 556.637 334.614 556.082L334.654 530.892C334.654 530.707 334.729 530.527 334.859 530.397L334.864 530.392ZM345.994 545.292L336.364 554.922C336.089 555.197 336.089 555.637 336.364 555.912C336.584 556.132 336.909 556.167 337.169 556.032C337.239 555.937 337.309 555.842 337.394 555.757L346.939 546.212C347.764 545.387 349.094 545.387 349.909 546.202L350.469 546.762L359.454 555.747L360.014 556.307C360.829 557.122 360.829 558.457 360.004 559.277L350.459 568.822C350.374 568.907 350.279 568.972 350.184 569.047C350.054 569.312 350.089 569.632 350.304 569.852C350.579 570.127 351.019 570.127 351.294 569.852L360.924 560.222C361.749 559.397 363.079 559.397 363.894 560.212L373.544 569.862C373.819 570.137 374.259 570.137 374.534 569.862L374.544 569.852C374.819 569.577 374.819 569.137 374.544 568.862L365.389 559.707C365.334 559.652 365.294 559.592 365.244 559.532L364.889 559.177C364.074 558.362 364.074 557.027 364.899 556.207L374.444 546.662C374.499 546.607 374.564 546.562 374.629 546.512L374.934 546.207C375.759 545.382 377.089 545.382 377.904 546.197L378.224 546.517C378.284 546.567 378.344 546.607 378.399 546.662L387.554 555.817C387.829 556.092 388.269 556.092 388.544 555.817L388.554 555.807C388.829 555.532 388.829 555.092 388.554 554.817L378.904 545.167C378.089 544.352 378.089 543.022 378.914 542.197L388.549 532.572C388.824 532.297 388.824 531.857 388.549 531.582C388.329 531.362 388.004 531.327 387.744 531.462C387.674 531.557 387.604 531.652 387.519 531.737L377.974 541.282C377.149 542.107 375.819 542.107 375.004 541.292L374.444 540.732L365.459 531.747L364.899 531.187C364.084 530.372 364.084 529.037 364.909 528.217L374.454 518.667C374.539 518.582 374.634 518.517 374.729 518.442C374.859 518.177 374.824 517.857 374.609 517.637C374.334 517.362 373.894 517.362 373.619 517.637L363.989 527.267C363.164 528.092 361.834 528.092 361.019 527.277L351.369 517.627C351.094 517.352 350.654 517.352 350.379 517.627L350.369 517.637C350.094 517.912 350.094 518.352 350.369 518.627L359.524 527.782C359.579 527.837 359.619 527.897 359.669 527.957L360.024 528.312C360.839 529.127 360.839 530.462 360.014 531.282L350.469 540.827C350.414 540.882 350.349 540.927 350.284 540.977L349.979 541.282C349.154 542.107 347.824 542.107 347.009 541.292L346.689 540.972C346.629 540.922 346.569 540.882 346.514 540.827L337.359 531.672C337.084 531.397 336.644 531.397 336.369 531.672L336.359 531.682C336.084 531.957 336.084 532.397 336.359 532.672L346.009 542.322C346.824 543.137 346.824 544.467 345.999 545.292H345.994Z" fill="#EDF5FD" fill-opacity="0.08"/>
<path d="M232.195 532.785L250.035 515.005C250.165 514.875 250.345 514.8 250.53 514.8H253.865C253.98 514.785 254.095 514.775 254.215 514.775H270.665C270.85 514.775 271.03 514.85 271.16 514.98L289 532.765C289.39 533.155 289.615 533.695 289.615 534.255V553.225C289.615 553.785 289.39 554.325 289 554.715L271.16 572.5C271.03 572.63 270.85 572.705 270.665 572.705H267.33C267.215 572.72 267.1 572.73 266.98 572.73H250.53C250.345 572.73 250.165 572.655 250.035 572.525L232.195 554.74C231.805 554.35 231.58 553.81 231.58 553.25V534.28C231.58 533.72 231.805 533.18 232.195 532.79V532.785ZM234.24 554.325H247.86C249.025 554.325 249.965 555.265 249.965 556.42V570.065C249.965 570.45 250.28 570.765 250.665 570.765H250.675C251.06 570.765 251.375 570.45 251.375 570.065V557.12C251.375 557.005 251.385 556.89 251.4 556.78V556.395C251.4 555.24 252.34 554.3 253.505 554.3H267.005C267.12 554.3 267.235 554.31 267.35 554.325H267.67C268.835 554.325 269.775 555.265 269.775 556.42V556.76C269.79 556.87 269.8 556.985 269.8 557.1V570.045C269.8 570.43 270.115 570.745 270.5 570.745H270.51C270.895 570.745 271.21 570.43 271.21 570.045V556.4C271.21 555.245 272.15 554.305 273.315 554.305H286.935C287.32 554.305 287.635 553.99 287.635 553.605C287.635 553.31 287.45 553.055 287.19 552.955C287.065 552.975 286.935 552.985 286.8 552.985H273.3C272.135 552.985 271.195 552.045 271.195 550.89V536.6C271.195 535.445 272.135 534.505 273.3 534.505H286.8C286.93 534.505 287.06 534.515 287.19 534.535C287.45 534.435 287.635 534.18 287.635 533.885C287.635 533.5 287.32 533.185 286.935 533.185H273.315C272.15 533.185 271.21 532.245 271.21 531.09V517.435C271.21 517.05 270.895 516.735 270.51 516.735H270.5C270.115 516.735 269.8 517.05 269.8 517.435V530.38C269.8 530.495 269.79 530.61 269.775 530.72V531.105C269.775 532.26 268.835 533.2 267.67 533.2H254.17C254.055 533.2 253.94 533.19 253.825 533.175H253.505C252.34 533.175 251.4 532.235 251.4 531.08V530.74C251.385 530.63 251.375 530.515 251.375 530.4V517.46C251.375 517.075 251.06 516.76 250.675 516.76H250.665C250.28 516.76 249.965 517.075 249.965 517.46V531.105C249.965 532.26 249.025 533.2 247.86 533.2H234.24C233.855 533.2 233.54 533.515 233.54 533.9C233.54 534.195 233.725 534.45 233.985 534.55C234.11 534.53 234.24 534.52 234.375 534.52H247.875C249.04 534.52 249.98 535.46 249.98 536.615V550.905C249.98 552.06 249.04 553 247.875 553H234.375C234.245 553 234.115 552.99 233.985 552.97C233.725 553.07 233.54 553.325 233.54 553.62C233.54 554.005 233.855 554.32 234.24 554.32V554.325Z" fill="#EDF5FD" fill-opacity="0.08"/>
<path d="M131.155 530.392L133.595 527.952C133.645 527.892 133.69 527.827 133.745 527.767L145.375 516.142C145.505 516.012 145.685 515.937 145.87 515.937L171.06 515.897C171.615 515.897 172.155 516.117 172.55 516.517L174.7 518.667L185.96 529.932C186.36 530.327 186.58 530.867 186.58 531.422L186.54 556.612C186.54 556.797 186.465 556.977 186.335 557.107L183.895 559.547C183.845 559.607 183.8 559.672 183.745 559.732L172.115 571.362C171.985 571.492 171.805 571.567 171.62 571.567L146.43 571.607C145.875 571.607 145.335 571.387 144.94 570.987L133.675 559.722L131.525 557.572C131.13 557.177 130.905 556.637 130.905 556.082L130.945 530.892C130.945 530.707 131.02 530.527 131.15 530.397L131.155 530.392ZM142.285 545.292L132.655 554.922C132.38 555.197 132.38 555.637 132.655 555.912C132.875 556.132 133.2 556.167 133.46 556.032C133.53 555.937 133.6 555.842 133.685 555.757L143.23 546.212C144.055 545.387 145.385 545.387 146.2 546.202L146.76 546.762L155.745 555.747L156.305 556.307C157.12 557.122 157.12 558.457 156.295 559.277L146.75 568.822C146.665 568.907 146.57 568.972 146.475 569.047C146.345 569.312 146.38 569.632 146.595 569.852C146.87 570.127 147.31 570.127 147.585 569.852L157.215 560.222C158.04 559.397 159.37 559.397 160.185 560.212L169.835 569.862C170.11 570.137 170.55 570.137 170.825 569.862L170.835 569.852C171.11 569.577 171.11 569.137 170.835 568.862L161.68 559.707C161.625 559.652 161.585 559.592 161.535 559.532L161.18 559.177C160.365 558.362 160.365 557.027 161.19 556.207L170.735 546.662C170.79 546.607 170.855 546.562 170.92 546.512L171.225 546.207C172.05 545.382 173.38 545.382 174.195 546.197L174.515 546.517C174.575 546.567 174.635 546.607 174.69 546.662L183.845 555.817C184.12 556.092 184.56 556.092 184.835 555.817L184.845 555.807C185.12 555.532 185.12 555.092 184.845 554.817L175.195 545.167C174.38 544.352 174.38 543.022 175.205 542.197L184.84 532.572C185.115 532.297 185.115 531.857 184.84 531.582C184.62 531.362 184.295 531.327 184.035 531.462C183.965 531.557 183.895 531.652 183.81 531.737L174.265 541.282C173.44 542.107 172.11 542.107 171.295 541.292L170.735 540.732L161.75 531.747L161.19 531.187C160.375 530.372 160.375 529.037 161.2 528.217L170.745 518.667C170.83 518.582 170.925 518.517 171.02 518.442C171.15 518.177 171.115 517.857 170.9 517.637C170.625 517.362 170.185 517.362 169.91 517.637L160.28 527.267C159.455 528.092 158.125 528.092 157.31 527.277L147.66 517.627C147.385 517.352 146.945 517.352 146.67 517.627L146.66 517.637C146.385 517.912 146.385 518.352 146.66 518.627L155.815 527.782C155.87 527.837 155.91 527.897 155.96 527.957L156.315 528.312C157.13 529.127 157.13 530.462 156.305 531.282L146.76 540.827C146.705 540.882 146.64 540.927 146.575 540.977L146.27 541.282C145.445 542.107 144.115 542.107 143.3 541.292L142.98 540.972C142.92 540.922 142.86 540.882 142.805 540.827L133.65 531.672C133.375 531.397 132.935 531.397 132.66 531.672L132.65 531.682C132.375 531.957 132.375 532.397 132.65 532.672L142.3 542.322C143.115 543.137 143.115 544.467 142.29 545.292H142.285Z" fill="#EDF5FD" fill-opacity="0.08"/>
<path d="M28.4843 532.785L46.3243 515.005C46.4543 514.875 46.6343 514.8 46.8193 514.8H50.1543C50.2693 514.785 50.3843 514.775 50.5043 514.775H66.9543C67.1393 514.775 67.3193 514.85 67.4493 514.98L85.2893 532.765C85.6793 533.155 85.9043 533.695 85.9043 534.255V553.225C85.9043 553.785 85.6793 554.325 85.2893 554.715L67.4493 572.5C67.3193 572.63 67.1393 572.705 66.9543 572.705H63.6193C63.5043 572.72 63.3893 572.73 63.2693 572.73H46.8193C46.6343 572.73 46.4543 572.655 46.3243 572.525L28.4843 554.74C28.0943 554.35 27.8693 553.81 27.8693 553.25V534.28C27.8693 533.72 28.0943 533.18 28.4843 532.79V532.785ZM30.5293 554.325H44.1493C45.3143 554.325 46.2543 555.265 46.2543 556.42V570.065C46.2543 570.45 46.5693 570.765 46.9543 570.765H46.9643C47.3493 570.765 47.6643 570.45 47.6643 570.065V557.12C47.6643 557.005 47.6743 556.89 47.6893 556.78V556.395C47.6893 555.24 48.6293 554.3 49.7943 554.3H63.2943C63.4093 554.3 63.5243 554.31 63.6393 554.325H63.9593C65.1243 554.325 66.0643 555.265 66.0643 556.42V556.76C66.0793 556.87 66.0893 556.985 66.0893 557.1V570.045C66.0893 570.43 66.4043 570.745 66.7893 570.745H66.7993C67.1843 570.745 67.4993 570.43 67.4993 570.045V556.4C67.4993 555.245 68.4393 554.305 69.6043 554.305H83.2243C83.6093 554.305 83.9243 553.99 83.9243 553.605C83.9243 553.31 83.7393 553.055 83.4793 552.955C83.3543 552.975 83.2243 552.985 83.0893 552.985H69.5893C68.4243 552.985 67.4843 552.045 67.4843 550.89V536.6C67.4843 535.445 68.4243 534.505 69.5893 534.505H83.0893C83.2193 534.505 83.3493 534.515 83.4793 534.535C83.7393 534.435 83.9243 534.18 83.9243 533.885C83.9243 533.5 83.6093 533.185 83.2243 533.185H69.6043C68.4393 533.185 67.4993 532.245 67.4993 531.09V517.435C67.4993 517.05 67.1843 516.735 66.7993 516.735H66.7893C66.4043 516.735 66.0893 517.05 66.0893 517.435V530.38C66.0893 530.495 66.0793 530.61 66.0643 530.72V531.105C66.0643 532.26 65.1243 533.2 63.9593 533.2H50.4593C50.3443 533.2 50.2293 533.19 50.1143 533.175H49.7943C48.6293 533.175 47.6893 532.235 47.6893 531.08V530.74C47.6743 530.63 47.6643 530.515 47.6643 530.4V517.46C47.6643 517.075 47.3493 516.76 46.9643 516.76H46.9543C46.5693 516.76 46.2543 517.075 46.2543 517.46V531.105C46.2543 532.26 45.3143 533.2 44.1493 533.2H30.5293C30.1443 533.2 29.8293 533.515 29.8293 533.9C29.8293 534.195 30.0143 534.45 30.2743 534.55C30.3993 534.53 30.5293 534.52 30.6643 534.52H44.1643C45.3293 534.52 46.2693 535.46 46.2693 536.615V550.905C46.2693 552.06 45.3293 553 44.1643 553H30.6643C30.5343 553 30.4043 552.99 30.2743 552.97C30.0143 553.07 29.8293 553.325 29.8293 553.62C29.8293 554.005 30.1443 554.32 30.5293 554.32V554.325Z" fill="#EDF5FD" fill-opacity="0.08"/>
</svg>
