<svg width="12" height="12" viewBox="0 0 12 12" fill="none" xmlns="http://www.w3.org/2000/svg">
<path d="M5.99992 1.875L3.75 5.625H8.25L5.99992 1.875ZM5.99992 3.33274L6.92535 4.875H5.07462L5.99992 3.33274ZM4.03125 9C3.46171 9 3 8.5383 3 7.96875C3 7.3992 3.46171 6.9375 4.03125 6.9375C4.60079 6.9375 5.0625 7.3992 5.0625 7.96875C5.0625 8.5383 4.60079 9 4.03125 9ZM4.03125 9.75C5.01501 9.75 5.8125 8.95252 5.8125 7.96875C5.8125 6.98498 5.01501 6.1875 4.03125 6.1875C3.04749 6.1875 2.25 6.98498 2.25 7.96875C2.25 8.95252 3.04749 9.75 4.03125 9.75ZM7.125 7.3125V8.8125H8.625V7.3125H7.125ZM6.375 9.5625V6.5625H9.375V9.5625H6.375Z" fill="#FFDDD3"/>
</svg>
