<svg width="43" height="29" viewBox="0 0 43 29" fill="none" xmlns="http://www.w3.org/2000/svg">
<path d="M28.3912 16.388V26.4903C28.3912 27.6512 27.4578 28.5912 26.305 28.5912H14.0803C13.9397 28.5912 13.8104 28.5346 13.7148 28.4383L0.455474 15.1309C0.163071 14.8364 0 14.4343 0 14.0153V2.09522C0 0.940016 0.93344 0 2.08056 0H12.1122C12.9782 0 13.6755 0.702181 13.6755 1.56858V11.6709C13.6755 12.8318 12.742 13.7718 11.5893 13.7718H1.97934C1.69256 13.7718 1.45639 14.004 1.45639 14.2984C1.45639 14.5872 1.68694 14.8251 1.97934 14.8251H12.101C12.9669 14.8251 13.6642 15.5273 13.6642 16.3937V26.6036C13.6642 26.8924 13.8948 27.1302 14.1872 27.1302H14.1928C14.4796 27.1302 14.7157 26.8981 14.7157 26.6036V16.9146C14.7157 15.7651 15.6492 14.8194 16.7963 14.8194H26.828C27.6939 14.8194 28.3912 15.5216 28.3912 16.388Z" fill="white"/>
<path d="M43.0001 14.5702V27.017C43.0001 27.889 42.3028 28.5912 41.4425 28.5912H30.8879C30.0219 28.5912 29.319 27.889 29.319 27.017V16.388C29.319 15.5273 30.0163 14.8194 30.8879 14.8194H41.0208C41.3075 14.8194 41.5437 14.5872 41.5437 14.2928C41.5437 14.004 41.3132 13.7661 41.0208 13.7661H30.8935C30.0275 13.7661 29.3303 13.064 29.3303 12.1862V1.99329C29.3303 1.70449 29.0997 1.46665 28.8073 1.46665H28.7961C28.5093 1.46665 28.2731 1.69882 28.2731 1.99329V12.1919C28.2731 13.064 27.5758 13.7718 26.7155 13.7718H16.6838C15.5311 13.7718 14.5977 12.8318 14.5977 11.6709V1.56858C14.6089 0.707843 15.3062 0 16.1721 0H28.9085C29.0435 0 29.1784 0.0566275 29.274 0.152894L42.539 13.4604C42.8314 13.7492 43.0001 14.1569 43.0001 14.5702Z" fill="white"/>
</svg>
