<svg width="12" height="12" viewBox="0 0 12 12" fill="none" xmlns="http://www.w3.org/2000/svg">
<path d="M5.65984 7.35039H2.73844L1.83844 9.60039H0.869141L3.74914 2.40039H4.64914L7.52914 9.60039H6.55984L5.65984 7.35039ZM5.29984 6.45039L4.19914 3.69864L3.09844 6.45039H5.29984V6.45039ZM10.0491 6.24114V6.00039H10.9491V9.60039H10.0491V9.35964C9.77549 9.51747 9.46513 9.6005 9.14923 9.60039C8.83334 9.60028 8.52303 9.51704 8.24949 9.35903C7.97595 9.20102 7.74881 8.97381 7.59089 8.70022C7.43298 8.42662 7.34984 8.11629 7.34984 7.80039C7.34984 7.48449 7.43298 7.17416 7.59089 6.90057C7.74881 6.62697 7.97595 6.39976 8.24949 6.24175C8.52303 6.08374 8.83334 6.0005 9.14923 6.00039C9.46513 6.00028 9.77549 6.08331 10.0491 6.24114V6.24114ZM9.14914 8.70039C9.38784 8.70039 9.61675 8.60557 9.78554 8.43679C9.95432 8.268 10.0491 8.03909 10.0491 7.80039C10.0491 7.5617 9.95432 7.33278 9.78554 7.16399C9.61675 6.99521 9.38784 6.90039 9.14914 6.90039C8.91045 6.90039 8.68153 6.99521 8.51274 7.16399C8.34396 7.33278 8.24914 7.5617 8.24914 7.80039C8.24914 8.03909 8.34396 8.268 8.51274 8.43679C8.68153 8.60557 8.91045 8.70039 9.14914 8.70039V8.70039Z" fill="#C9C3FF"/>
</svg>
