<svg width="12" height="12" viewBox="0 0 12 12" fill="none" xmlns="http://www.w3.org/2000/svg">
<path d="M9.60019 1.9502C9.84859 1.9502 10.0502 2.1518 10.0502 2.4002V3.19085L9.15019 4.09085V2.8502H2.8502V6.4952L4.6502 4.6952L6.59779 6.64325L5.96104 7.2791L4.6502 5.9687L2.8502 7.76825V9.1502H7.59004L7.90864 9.15065L8.50669 8.55215L9.10519 9.1502H9.15019V7.9091L10.0502 7.0091V9.6002C10.0502 9.8486 9.84859 10.0502 9.60019 10.0502H2.4002C2.1527 10.0502 1.9502 9.8477 1.9502 9.6002V2.4002C1.9502 2.1518 2.1518 1.9502 2.4002 1.9502H9.60019ZM10.4003 4.1138L11.0366 4.7501L7.53649 8.2502L6.89929 8.2493L6.90019 7.6139L10.4003 4.1138V4.1138ZM7.57519 3.7502C7.94779 3.7502 8.25019 4.0526 8.25019 4.4252C8.25019 4.7978 7.94779 5.1002 7.57519 5.1002C7.20259 5.1002 6.90019 4.7978 6.90019 4.4252C6.90019 4.0526 7.20259 3.7502 7.57519 3.7502Z" fill="#D3E3FF"/>
</svg>
